<svg width="152" height="144" viewBox="0 0 152 144" fill="none" xmlns="http://www.w3.org/2000/svg">
<path d="M38.0167 69.4638C38.0167 69.4638 37.7009 62.7933 43.1886 52.7678C48.6763 42.7423 66.1297 16.8033 70.9429 9.31067C75.7562 1.81807 71.2244 8.46782 72.0684 7.81222C72.9123 7.15663 74.6938 5.06489 76.0065 5.37711C77.3191 5.68933 75.1938 2.69244 79.9445 9.68556C84.6953 16.6787 99.2288 38.5009 104.511 47.3358C109.793 56.1707 110.262 57.825 111.637 62.6951C113.012 67.5653 113 69.4638 113 69.4638" stroke="#85D2FF" stroke-width="5" stroke-miterlimit="10" stroke-linejoin="round"/>
<path fill-rule="evenodd" clip-rule="evenodd" d="M62.6896 46.7158C63.9117 45.2799 65.9261 41.5028 67.8418 38.6622C69.7575 35.8215 72.8626 31.7634 74.1839 29.6719C75.5051 27.5805 75.8023 27.0189 75.7693 26.1137C75.7362 25.2084 74.8113 24.3654 73.9856 24.2405C73.1598 24.1157 72.5324 23.3667 70.8148 25.3645C69.0972 27.3623 65.6288 33.0746 63.68 36.2273C61.7312 39.3801 59.6506 42.4393 59.1222 44.281C58.5937 46.1227 59.9147 46.8717 60.5092 47.2776C61.1038 47.6834 61.4675 48.1517 62.6896 46.7158Z" fill="#85D2FF"/>
<path fill-rule="evenodd" clip-rule="evenodd" d="M62.6896 46.7158C63.9117 45.2799 65.9261 41.5028 67.8418 38.6622C69.7575 35.8215 72.8626 31.7634 74.1839 29.6719C75.5051 27.5805 75.8023 27.0189 75.7693 26.1137C75.7362 25.2084 74.8113 24.3654 73.9856 24.2405C73.1598 24.1157 72.5324 23.3667 70.8148 25.3645C69.0972 27.3623 65.6288 33.0746 63.68 36.2273C61.7312 39.3801 59.6506 42.4393 59.1222 44.281C58.5937 46.1227 59.9147 46.8717 60.5092 47.2776C61.1038 47.6834 61.4675 48.1517 62.6896 46.7158V46.7158Z" stroke="#85D2FF" stroke-miterlimit="10" stroke-linejoin="round"/>
<path fill-rule="evenodd" clip-rule="evenodd" d="M56.5519 56.5754C56.4858 57.7304 56.1223 60.4148 55.3626 61.2577C54.6028 62.1005 52.7202 62.0071 51.9935 61.6325C51.2668 61.258 50.9694 60.1964 51.0025 59.0103C51.0355 57.8241 51.399 55.2958 52.1918 54.5154C52.9846 53.735 55.0325 53.9847 55.7592 54.328C56.4859 54.6713 56.618 55.4205 56.5519 56.5754Z" fill="#85D2FF"/>
<path fill-rule="evenodd" clip-rule="evenodd" d="M56.5519 56.5754C56.4858 57.7304 56.1223 60.4148 55.3626 61.2577C54.6028 62.1005 52.7202 62.0071 51.9935 61.6325C51.2668 61.258 50.9694 60.1964 51.0025 59.0103C51.0355 57.8241 51.399 55.2958 52.1918 54.5154C52.9846 53.735 55.0325 53.9847 55.7592 54.328C56.4859 54.6713 56.618 55.4205 56.5519 56.5754V56.5754Z" stroke="#85D2FF" stroke-miterlimit="10" stroke-linejoin="round"/>
<path d="M118 95.5C118 119.801 98.9721 141 75.5 141C52.0279 141 33.5 120.801 33.5 96.5" stroke="#85D2FF" stroke-width="5"/>
<path d="M111.5 98C111.5 117.247 95.4077 133.511 75.6911 133.511C55.9746 133.511 40.5002 117.747 40.5002 98.5" stroke="#85D2FF" stroke-width="3"/>
<path d="M80.9002 97.3715C80.9002 100.658 78.2363 103.322 74.9502 103.322C71.6641 103.322 69.0002 100.658 69.0002 97.3715" stroke="#85D2FF" stroke-width="5"/>
<line x1="75.5" y1="98" x2="75.5" y2="139" stroke="#85D2FF" stroke-width="3"/>
<path d="M76.0001 98L106 125" stroke="#85D2FF" stroke-width="3"/>
<path d="M47 126.211L74.8412 97.8107" stroke="#85D2FF" stroke-width="3"/>
<path d="M39.0002 98L113 97" stroke="#85D2FF" stroke-width="3"/>
<path d="M23.0614 73.2C23.0614 72.8267 23.508 72.64 24.4014 72.64C25.308 72.64 25.8214 72.8867 25.9414 73.38L28.6414 84.12L30.5614 75.36C30.6147 75.0933 30.728 74.9133 30.9014 74.82C31.0747 74.7267 31.368 74.68 31.7814 74.68C32.848 74.68 33.4547 74.9667 33.6014 75.54L35.7614 84.12L38.1414 73.38C38.208 73.0867 38.328 72.8933 38.5014 72.8C38.6747 72.6933 39.0147 72.64 39.5214 72.64C40.028 72.64 40.3547 72.6733 40.5014 72.74C40.6614 72.8067 40.7414 72.96 40.7414 73.2C40.7414 73.2533 40.7347 73.3133 40.7214 73.38L37.3814 87.6C37.3147 87.88 37.2147 88.0667 37.0814 88.16C36.9614 88.2667 36.7614 88.32 36.4814 88.32C35.0547 88.32 34.2747 88.08 34.1414 87.6L32.0214 80.5L30.2214 87.56C30.1547 87.8533 30.0547 88.0533 29.9214 88.16C29.788 88.2667 29.588 88.32 29.3214 88.32C27.8947 88.32 27.1214 88.08 27.0014 87.6L23.0814 73.32C23.068 73.28 23.0614 73.24 23.0614 73.2ZM46.8662 87.38C46.1729 88.0067 45.5529 88.32 45.0062 88.32C44.4729 88.32 44.0395 88.28 43.7062 88.2C43.3729 88.1333 43.0729 87.98 42.8062 87.74C42.5395 87.4867 42.3529 87.1267 42.2462 86.66C42.1395 86.1933 42.0862 85.5733 42.0862 84.8C42.0862 83.72 42.6129 82.98 43.6662 82.58L46.5262 81.84C46.5129 80.9733 46.4262 80.4133 46.2662 80.16C46.1062 79.9067 45.7595 79.78 45.2262 79.78C44.6929 79.78 44.2329 79.8667 43.8462 80.04L43.1462 80.32H43.1262C43.0062 80.3867 42.8995 80.3333 42.8062 80.16C42.5662 79.6533 42.4462 79.26 42.4462 78.98C42.4462 78.6867 42.4662 78.5267 42.5062 78.5C42.5595 78.46 42.5862 78.4333 42.5862 78.42C43.2529 77.98 44.1129 77.76 45.1662 77.76C46.2329 77.76 47.0529 77.9 47.6262 78.18C48.1995 78.46 48.6129 78.9733 48.8662 79.72C49.1329 80.4533 49.2662 81.5467 49.2662 83L49.2262 88C49.2262 88.08 49.2129 88.1333 49.1862 88.16C49.1329 88.2667 48.8795 88.32 48.4262 88.32C47.5995 88.32 47.1862 88.2133 47.1862 88L46.8662 87.38ZM44.3062 84.84C44.3062 85.8 44.5862 86.3067 45.1462 86.36C45.5329 86.36 45.8129 86.2933 45.9862 86.16C46.3595 85.9067 46.5462 84.96 46.5462 83.32C45.8529 83.4133 45.3062 83.6067 44.9062 83.9C44.5062 84.18 44.3062 84.4933 44.3062 84.84ZM51.586 79.68H49.986C49.826 79.68 49.7394 79.6467 49.726 79.58C49.6994 79.5 49.686 79.4133 49.686 79.32C49.686 78.7467 49.786 78.44 49.986 78.4L51.586 78.08L52.706 75.82C52.866 75.62 53.1727 75.52 53.626 75.52C53.746 75.52 53.8594 75.76 53.966 76.24C54.0727 76.72 54.186 77.3333 54.306 78.08H56.226C56.4394 78.08 56.546 78.3467 56.546 78.88C56.546 79.4133 56.4394 79.68 56.226 79.68H54.286V86.04L54.606 88.3V88.32C54.6194 88.4 54.6194 88.4533 54.606 88.48C54.5394 88.5867 54.206 88.64 53.606 88.64C53.006 88.64 52.646 88.52 52.526 88.28L51.586 86.38V79.68ZM61.0043 88.32C59.5777 88.32 58.5843 87.9333 58.0243 87.16C57.4777 86.3867 57.2043 85 57.2043 83C57.2043 81.56 57.331 80.4667 57.5843 79.72C57.8377 78.96 58.2177 78.4467 58.7243 78.18C59.2443 77.9 60.0043 77.76 61.0043 77.76C62.0043 77.76 62.7577 77.9 63.2643 78.18C63.7843 78.46 64.1643 78.98 64.4043 79.74C64.6443 80.5 64.7643 81.58 64.7643 82.98C64.7643 83.06 64.7643 83.14 64.7643 83.22C64.7643 83.3 64.6043 83.3733 64.2843 83.44C63.9777 83.5067 63.6043 83.54 63.1643 83.54H60.0843C60.111 85.1 60.2243 85.9867 60.4243 86.2C60.5443 86.3067 60.7377 86.36 61.0043 86.36C62.751 86.36 63.9443 86.2733 64.5843 86.1C64.611 86.0867 64.631 86.08 64.6443 86.08C64.7377 86.0533 64.811 86.1067 64.8643 86.24C64.931 86.3733 64.9643 86.6867 64.9643 87.18C64.9643 87.6733 64.8577 87.9467 64.6443 88C64.0977 88.2133 62.8843 88.32 61.0043 88.32ZM60.0843 80.38V81.94H62.1043C62.051 80.3933 61.8977 79.62 61.6443 79.62C61.191 79.62 60.8177 79.6867 60.5243 79.82C60.231 79.9533 60.0843 80.14 60.0843 80.38ZM68.7864 78.88C69.8797 78.1333 70.5997 77.76 70.9464 77.76C71.3064 77.76 71.6264 77.8267 71.9064 77.96C72.1997 78.0933 72.413 78.2267 72.5464 78.36L72.7264 78.54C72.5264 79.3933 72.373 79.9267 72.2664 80.14C72.1597 80.3533 72.013 80.46 71.8264 80.46C71.653 80.46 71.4264 80.3867 71.1464 80.24C70.8664 80.0933 70.613 80.02 70.3864 80.02C70.1597 80.02 69.7064 80.2267 69.0264 80.64V88C69.0264 88.08 69.013 88.1333 68.9864 88.16C68.933 88.2667 68.6864 88.32 68.2464 88.32C67.8064 88.32 67.393 88.2867 67.0064 88.22C66.633 88.1533 66.4464 88.08 66.4464 88V78.08C66.4464 77.8667 66.7464 77.76 67.3464 77.76C67.9464 77.76 68.293 77.8667 68.3864 78.08V78.12L68.7864 78.88ZM78.8621 73.2C78.8621 72.8267 79.3088 72.64 80.2021 72.64C81.1088 72.64 81.6221 72.8867 81.7421 73.38L84.4421 84.12L86.3621 75.36C86.4155 75.0933 86.5288 74.9133 86.7021 74.82C86.8755 74.7267 87.1688 74.68 87.5821 74.68C88.6488 74.68 89.2555 74.9667 89.4021 75.54L91.5621 84.12L93.9421 73.38C94.0088 73.0867 94.1288 72.8933 94.3021 72.8C94.4755 72.6933 94.8155 72.64 95.3221 72.64C95.8288 72.64 96.1555 72.6733 96.3021 72.74C96.4621 72.8067 96.5421 72.96 96.5421 73.2C96.5421 73.2533 96.5355 73.3133 96.5221 73.38L93.1821 87.6C93.1155 87.88 93.0155 88.0667 92.8821 88.16C92.7621 88.2667 92.5621 88.32 92.2821 88.32C90.8555 88.32 90.0755 88.08 89.9421 87.6L87.8221 80.5L86.0221 87.56C85.9555 87.8533 85.8555 88.0533 85.7221 88.16C85.5888 88.2667 85.3888 88.32 85.1221 88.32C83.6955 88.32 82.9221 88.08 82.8021 87.6L78.8821 73.32C78.8688 73.28 78.8621 73.24 78.8621 73.2ZM103.227 77.76C104.214 77.76 104.934 78.0667 105.387 78.68C105.854 79.2933 106.087 80.3733 106.087 81.92V88C106.087 88.08 106.08 88.1333 106.067 88.16C106 88.2667 105.74 88.32 105.287 88.32C104.847 88.32 104.394 88.2867 103.927 88.22C103.46 88.1533 103.227 88.08 103.227 88L103.207 81.92C103.207 80.4267 103.1 79.68 102.887 79.68C102.407 79.68 101.767 79.92 100.967 80.4V88C100.967 88.08 100.96 88.1333 100.947 88.16C100.88 88.2667 100.62 88.32 100.167 88.32C99.727 88.32 99.267 88.2867 98.787 88.22C98.3203 88.1533 98.087 88.08 98.087 88V72.96C98.087 72.7467 98.3203 72.64 98.787 72.64C99.267 72.64 99.6803 72.6733 100.027 72.74C100.374 72.7933 100.554 72.8667 100.567 72.96L100.927 78.74C101.94 78.0867 102.707 77.76 103.227 77.76ZM111.004 88.32C109.578 88.32 108.584 87.9333 108.024 87.16C107.478 86.3867 107.204 85 107.204 83C107.204 81.56 107.331 80.4667 107.584 79.72C107.838 78.96 108.218 78.4467 108.724 78.18C109.244 77.9 110.004 77.76 111.004 77.76C112.004 77.76 112.758 77.9 113.264 78.18C113.784 78.46 114.164 78.98 114.404 79.74C114.644 80.5 114.764 81.58 114.764 82.98C114.764 83.06 114.764 83.14 114.764 83.22C114.764 83.3 114.604 83.3733 114.284 83.44C113.978 83.5067 113.604 83.54 113.164 83.54H110.084C110.111 85.1 110.224 85.9867 110.424 86.2C110.544 86.3067 110.738 86.36 111.004 86.36C112.751 86.36 113.944 86.2733 114.584 86.1C114.611 86.0867 114.631 86.08 114.644 86.08C114.738 86.0533 114.811 86.1067 114.864 86.24C114.931 86.3733 114.964 86.6867 114.964 87.18C114.964 87.6733 114.858 87.9467 114.644 88C114.098 88.2133 112.884 88.32 111.004 88.32ZM110.084 80.38V81.94H112.104C112.051 80.3933 111.898 79.62 111.644 79.62C111.191 79.62 110.818 79.6867 110.524 79.82C110.231 79.9533 110.084 80.14 110.084 80.38ZM120.086 88.32C118.66 88.32 117.666 87.9333 117.106 87.16C116.56 86.3867 116.286 85 116.286 83C116.286 81.56 116.413 80.4667 116.666 79.72C116.92 78.96 117.3 78.4467 117.806 78.18C118.326 77.9 119.086 77.76 120.086 77.76C121.086 77.76 121.84 77.9 122.346 78.18C122.866 78.46 123.246 78.98 123.486 79.74C123.726 80.5 123.846 81.58 123.846 82.98C123.846 83.06 123.846 83.14 123.846 83.22C123.846 83.3 123.686 83.3733 123.366 83.44C123.06 83.5067 122.686 83.54 122.246 83.54H119.166C119.193 85.1 119.306 85.9867 119.506 86.2C119.626 86.3067 119.82 86.36 120.086 86.36C121.833 86.36 123.026 86.2733 123.666 86.1C123.693 86.0867 123.713 86.08 123.726 86.08C123.82 86.0533 123.893 86.1067 123.946 86.24C124.013 86.3733 124.046 86.6867 124.046 87.18C124.046 87.6733 123.94 87.9467 123.726 88C123.18 88.2133 121.966 88.32 120.086 88.32ZM119.166 80.38V81.94H121.186C121.133 80.3933 120.98 79.62 120.726 79.62C120.273 79.62 119.9 79.6867 119.606 79.82C119.313 79.9533 119.166 80.14 119.166 80.38ZM128.228 88C128.228 88.08 128.215 88.1333 128.188 88.16C128.135 88.2667 127.888 88.32 127.448 88.32C127.008 88.32 126.575 88.2867 126.148 88.22C125.735 88.1533 125.528 88.08 125.528 88V72.96C125.528 72.7467 125.762 72.64 126.228 72.64C126.695 72.64 127.082 72.6733 127.388 72.74C127.695 72.7933 127.855 72.8667 127.868 72.96L128.228 79.38V88Z" fill="#85D2FF"/>
</svg>
