<svg width="91" height="109" viewBox="0 0 91 109" fill="none" xmlns="http://www.w3.org/2000/svg">
<path fill-rule="evenodd" clip-rule="evenodd" d="M36.7231 8.52124C32.4842 15.1374 17.1136 38.0421 12.2808 46.8948C7.44798 55.7476 8.26317 57.0237 7.72613 61.6377C7.1891 66.2518 8.07929 70.8338 9.0586 74.5792C10.0379 78.3246 11.1657 80.8953 13.602 84.1103C16.0383 87.3252 19.7953 91.6084 23.6764 93.8689C27.5574 96.1294 32.2642 97.2874 36.8884 97.6734C41.5126 98.0593 47.0236 97.5212 51.4215 96.1847C55.8195 94.8482 60.1931 92.1908 63.276 89.6546C66.3588 87.1184 68.2059 84.593 69.9186 80.9674C71.6313 77.3418 73.1117 72.1186 73.552 67.9008C73.9924 63.6831 73.7721 59.9613 72.5609 55.6609C71.3498 51.3604 70.9369 49.8997 66.2852 42.0982C61.6335 34.2968 48.8343 15.0273 44.6505 8.85228C40.4667 2.67721 42.3384 5.32352 41.1823 5.04783C40.0263 4.77213 38.4574 6.61918 37.7142 7.19808C36.971 7.77698 40.962 1.90512 36.7231 8.52124H36.7231Z" stroke="#85D2FF" stroke-width="5" stroke-miterlimit="10" stroke-linejoin="round"/>
<path fill-rule="evenodd" clip-rule="evenodd" d="M22.5068 53.5084C23.5253 52.2403 25.2039 48.9046 26.8003 46.396C28.3968 43.8874 30.9844 40.3035 32.0854 38.4566C33.1865 36.6096 33.4341 36.1136 33.4066 35.3142C33.379 34.5148 32.6083 33.7703 31.9202 33.66C31.232 33.5497 30.7092 32.8883 29.2779 34.6526C27.8465 36.4169 24.9562 41.4615 23.3322 44.2458C21.7082 47.03 19.9744 49.7317 19.534 51.3581C19.0936 52.9845 20.1944 53.646 20.6899 54.0044C21.1854 54.3628 21.4884 54.7764 22.5068 53.5084V53.5084Z" fill="#85D2FF"/>
<path fill-rule="evenodd" clip-rule="evenodd" d="M22.5068 53.5084C23.5253 52.2403 25.2039 48.9046 26.8003 46.396C28.3968 43.8874 30.9844 40.3035 32.0854 38.4566C33.1865 36.6096 33.4341 36.1136 33.4066 35.3142C33.379 34.5148 32.6083 33.7703 31.9202 33.66C31.232 33.5497 30.7092 32.8883 29.2779 34.6526C27.8465 36.4169 24.9562 41.4615 23.3322 44.2458C21.7082 47.03 19.9744 49.7317 19.534 51.3581C19.0936 52.9845 20.1944 53.646 20.6899 54.0044C21.1854 54.3628 21.4884 54.7764 22.5068 53.5084V53.5084Z" stroke="#85D2FF" stroke-miterlimit="10" stroke-linejoin="round"/>
<path fill-rule="evenodd" clip-rule="evenodd" d="M20.5383 59.6301C20.4832 60.6501 20.1803 63.0208 19.5472 63.7651C18.9141 64.5094 17.3452 64.4269 16.7396 64.0961C16.1341 63.7654 15.8863 62.8279 15.9138 61.7804C15.9413 60.7328 16.2443 58.5001 16.9049 57.8109C17.5656 57.1217 19.2722 57.3422 19.8777 57.6454C20.4833 57.9486 20.5934 58.6102 20.5383 59.6301V59.6301Z" fill="#85D2FF"/>
<path fill-rule="evenodd" clip-rule="evenodd" d="M20.5383 59.6301C20.4832 60.6501 20.1803 63.0208 19.5472 63.7651C18.9141 64.5094 17.3452 64.4269 16.7396 64.0961C16.1341 63.7654 15.8863 62.8279 15.9138 61.7804C15.9413 60.7328 16.2443 58.5001 16.9049 57.8109C17.5656 57.1217 19.2722 57.3422 19.8777 57.6454C20.4833 57.9486 20.5934 58.6102 20.5383 59.6301V59.6301Z" stroke="#85D2FF" stroke-miterlimit="10" stroke-linejoin="round"/>
</svg>
