<svg width="291" height="123" viewBox="0 0 291 123" fill="none" xmlns="http://www.w3.org/2000/svg">
<path d="M33.9832 69.3066H290.296" stroke="#D6D6D6"/>
<path d="M33.9832 35.9693H290.296" stroke="#D6D6D6"/>
<path d="M33.9832 5.26379H290.296" stroke="#D6D6D6"/>
<path d="M37.6313 95.4241C37.6313 93.3945 39.2766 91.7492 41.3062 91.7492C43.3359 91.7492 44.9812 93.3945 44.9812 95.4242V101.643C44.9812 103.673 43.3359 105.318 41.3062 105.318C39.2766 105.318 37.6313 103.673 37.6313 101.643V95.4241Z" fill="#85D2FF"/>
<path d="M47.2426 94.8588C47.2426 92.8291 48.888 91.1838 50.9176 91.1838C52.9472 91.1838 54.5926 92.8291 54.5926 94.8588V101.643C54.5926 103.673 52.9472 105.318 50.9176 105.318C48.888 105.318 47.2426 103.673 47.2426 101.643V94.8588Z" fill="#85D2FF"/>
<path d="M57.4195 95.4241C57.4195 93.3945 59.0648 91.7492 61.0944 91.7492C63.1241 91.7492 64.7694 93.3945 64.7694 95.4242V101.643C64.7694 103.673 63.1241 105.318 61.0944 105.318C59.0648 105.318 57.4195 103.673 57.4195 101.643V95.4241Z" fill="#85D2FF"/>
<path d="M67.5963 95.4241C67.5963 93.3945 69.2416 91.7492 71.2712 91.7492C73.3009 91.7492 74.9462 93.3945 74.9462 95.4242V101.643C74.9462 103.673 73.3009 105.318 71.2712 105.318C69.2416 105.318 67.5963 103.673 67.5963 101.643V95.4241Z" fill="#85D2FF"/>
<path d="M77.2077 95.1414C77.2077 92.9557 78.9796 91.1838 81.1653 91.1838C83.3511 91.1838 85.123 92.9557 85.123 95.1414V101.361C85.123 103.546 83.3511 105.318 81.1653 105.318C78.9796 105.318 77.2077 103.546 77.2077 101.361V95.1414Z" fill="#85D2FF"/>
<path d="M87.4439 88.2149C87.4439 86.0903 89.1663 84.368 91.2909 84.368C93.4155 84.368 95.1378 86.0903 95.1378 88.2149V101.583C95.1378 103.708 93.4155 105.43 91.2909 105.43C89.1663 105.43 87.4439 103.708 87.4439 101.583V88.2149Z" fill="#85D2FF"/>
<path d="M97.2093 76.1302C97.2093 74.0056 98.9316 72.2833 101.056 72.2833C103.181 72.2833 104.903 74.0056 104.903 76.1302V101.583C104.903 103.708 103.181 105.43 101.056 105.43C98.9316 105.43 97.2093 103.708 97.2093 101.583V76.1302Z" fill="#85D2FF"/>
<path d="M107.566 58.5211C107.566 56.3965 109.289 54.6742 111.413 54.6742C113.538 54.6742 115.26 56.3965 115.26 58.5211V101.583C115.26 103.708 113.538 105.43 111.413 105.43C109.289 105.43 107.566 103.708 107.566 101.583V58.5211Z" fill="#85D2FF"/>
<path d="M117.628 75.9823C117.628 73.9394 119.284 72.2833 121.327 72.2833C123.37 72.2833 125.026 73.9394 125.026 75.9823V101.731C125.026 103.774 123.37 105.43 121.327 105.43C119.284 105.43 117.628 103.774 117.628 101.731V75.9823Z" fill="#85D2FF"/>
<path d="M127.393 53.8846C127.393 51.8417 129.049 50.1856 131.092 50.1856C133.135 50.1856 134.791 51.8417 134.791 53.8846V101.731C134.791 103.774 133.135 105.43 131.092 105.43C129.049 105.43 127.393 103.774 127.393 101.731V53.8846Z" fill="#85D2FF"/>
<path d="M137.75 41.4546C137.75 39.4117 139.406 37.7556 141.449 37.7556C143.492 37.7556 145.148 39.4117 145.148 41.4546V101.731C145.148 103.774 143.492 105.43 141.449 105.43C139.406 105.43 137.75 103.774 137.75 101.731V41.4546Z" fill="#85D2FF"/>
<path d="M147.515 30.0605C147.515 28.0176 149.172 26.3615 151.214 26.3615C153.257 26.3615 154.913 28.0176 154.913 30.0605V101.731C154.913 103.774 153.257 105.43 151.214 105.43C149.172 105.43 147.515 103.774 147.515 101.731V65.8957V30.0605Z" fill="#85D2FF"/>
<path d="M157.281 58.6691C157.281 56.4628 159.069 54.6742 161.276 54.6742C163.482 54.6742 165.271 56.4628 165.271 58.6691V101.435C165.271 103.641 163.482 105.43 161.276 105.43C159.069 105.43 157.281 103.641 157.281 101.435V58.6691Z" fill="#85D2FF"/>
<path d="M177.403 42.8357C177.403 40.7928 179.059 39.1368 181.102 39.1368C183.145 39.1368 184.801 40.7928 184.801 42.8357V101.731C184.801 103.774 183.145 105.43 181.102 105.43C179.059 105.43 177.403 103.774 177.403 101.731V42.8357Z" fill="#85D2FF"/>
<path d="M187.76 62.1712C187.76 60.1283 189.416 58.4723 191.459 58.4723C193.502 58.4723 195.158 60.1283 195.158 62.1712V101.731C195.158 103.774 193.502 105.43 191.459 105.43C189.416 105.43 187.76 103.774 187.76 101.731V62.1712Z" fill="#85D2FF"/>
<path d="M197.526 24.5361C197.526 22.4932 199.182 20.8371 201.225 20.8371C203.268 20.8371 204.924 22.4932 204.924 24.5361V101.731C204.924 103.774 203.268 105.43 201.225 105.43C199.182 105.43 197.526 103.774 197.526 101.731V24.5361Z" fill="#85D2FF"/>
<path d="M207.291 19.8502C207.291 17.7255 209.013 16.0032 211.138 16.0032C213.263 16.0032 214.985 17.7256 214.985 19.8502V101.583C214.985 103.708 213.263 105.43 211.138 105.43C209.013 105.43 207.291 103.708 207.291 101.583V19.8502Z" fill="#85D2FF"/>
<path d="M217.648 58.5211C217.648 56.3965 219.37 54.6742 221.495 54.6742C223.62 54.6742 225.342 56.3965 225.342 58.5211V101.583C225.342 103.708 223.62 105.43 221.495 105.43C219.37 105.43 217.648 103.708 217.648 101.583V58.5211Z" fill="#85D2FF"/>
<path d="M227.413 54.0325C227.413 51.9079 229.136 50.1856 231.26 50.1856C233.385 50.1856 235.107 51.9079 235.107 54.0325V101.583C235.107 103.708 233.385 105.43 231.26 105.43C229.136 105.43 227.413 103.708 227.413 101.583V54.0325Z" fill="#85D2FF"/>
<path d="M237.179 81.26C237.179 78.972 239.034 77.1172 241.322 77.1172C243.61 77.1172 245.464 78.972 245.464 81.26V101.287C245.464 103.575 243.61 105.43 241.322 105.43C239.034 105.43 237.179 103.575 237.179 101.287V81.26Z" fill="#85D2FF"/>
<path d="M247.536 62.3192C247.536 60.1946 249.258 58.4723 251.383 58.4723C253.507 58.4723 255.23 60.1946 255.23 62.3192V100.892C255.23 103.017 253.507 104.739 251.383 104.739C249.258 104.739 247.536 103.017 247.536 100.892V62.3192Z" fill="#85D2FF"/>
<path d="M257.597 80.8162C257.597 78.7733 259.253 77.1172 261.296 77.1172C263.339 77.1172 264.995 78.7733 264.995 80.8162V101.731C264.995 103.774 263.339 105.43 261.296 105.43C259.253 105.43 257.597 103.774 257.597 101.731V80.8162Z" fill="#85D2FF"/>
<path d="M267.954 94.6272C267.954 92.5843 269.61 90.9282 271.653 90.9282C273.696 90.9282 275.352 92.5843 275.352 94.6272V101.04C275.352 103.083 273.696 104.739 271.653 104.739C269.61 104.739 267.954 103.083 267.954 101.04V94.6272Z" fill="#85D2FF"/>
<path d="M277.917 94.8587C277.917 92.8291 279.562 91.1838 281.592 91.1838C283.621 91.1838 285.267 92.8291 285.267 94.8588V101.078C285.267 103.108 283.621 104.753 281.592 104.753C279.562 104.753 277.917 103.108 277.917 101.078V94.8587Z" fill="#85D2FF"/>
<path d="M167.638 75.9823C167.638 73.9394 169.294 72.2833 171.337 72.2833C173.38 72.2833 175.036 73.9394 175.036 75.9823V101.731C175.036 103.774 173.38 105.43 171.337 105.43C169.294 105.43 167.638 103.774 167.638 101.731V75.9823Z" fill="#85D2FF"/>
<path d="M33.983 105.276H289.144" stroke="#C2C2C2" stroke-width="3"/>
<path d="M11.696 71.2419H12.3748C12.8012 71.2354 13.1365 71.1231 13.3806 70.905C13.6248 70.6869 13.7468 70.3923 13.7468 70.0212C13.7468 69.1879 13.3318 68.7712 12.5017 68.7712C12.1111 68.7712 11.7986 68.8835 11.5642 69.1081C11.3331 69.3295 11.2175 69.6241 11.2175 69.9919H10.3142C10.3142 69.4288 10.5193 68.9617 10.9294 68.5906C11.3429 68.2162 11.8669 68.029 12.5017 68.029C13.1723 68.029 13.698 68.2065 14.0789 68.5613C14.4597 68.9161 14.6501 69.4093 14.6501 70.0408C14.6501 70.35 14.5492 70.6495 14.3474 70.9392C14.1488 71.2289 13.877 71.4454 13.532 71.5886C13.9226 71.7123 14.2237 71.9174 14.4353 72.2038C14.6501 72.4903 14.7576 72.8402 14.7576 73.2537C14.7576 73.8917 14.5492 74.3979 14.1326 74.7722C13.7159 75.1466 13.1739 75.3337 12.5066 75.3337C11.8393 75.3337 11.2957 75.1531 10.8757 74.7917C10.4591 74.4304 10.2507 73.9535 10.2507 73.3611H11.1589C11.1589 73.7354 11.281 74.0349 11.5251 74.2595C11.7693 74.4841 12.0964 74.5964 12.5066 74.5964C12.9428 74.5964 13.2764 74.4825 13.5076 74.2546C13.7387 74.0268 13.8542 73.6996 13.8542 73.2732C13.8542 72.8598 13.7273 72.5424 13.4734 72.321C13.2195 72.0997 12.8533 71.9858 12.3748 71.9792H11.696V71.2419ZM20.4558 72.2038C20.4558 73.2618 20.2751 74.0479 19.9138 74.5622C19.5525 75.0766 18.9877 75.3337 18.2195 75.3337C17.461 75.3337 16.8995 75.0831 16.5349 74.5818C16.1703 74.0772 15.9815 73.3253 15.9685 72.3259V71.1199C15.9685 70.0749 16.1492 69.2986 16.5105 68.7908C16.8718 68.283 17.4382 68.029 18.2097 68.029C18.9747 68.029 19.5378 68.2748 19.8992 68.7663C20.2605 69.2546 20.446 70.0098 20.4558 71.032V72.2038ZM19.5525 70.9685C19.5525 70.2035 19.4451 69.6469 19.2302 69.2986C19.0154 68.947 18.6752 68.7712 18.2097 68.7712C17.7475 68.7712 17.4106 68.9454 17.199 69.2937C16.9874 69.642 16.8783 70.1775 16.8718 70.9001V72.3455C16.8718 73.1137 16.9825 73.6817 17.2039 74.0496C17.4285 74.4141 17.767 74.5964 18.2195 74.5964C18.6654 74.5964 18.9958 74.4239 19.2107 74.0788C19.4288 73.7338 19.5427 73.1902 19.5525 72.448V70.9685ZM26.071 72.2038C26.071 73.2618 25.8904 74.0479 25.5291 74.5622C25.1677 75.0766 24.6029 75.3337 23.8347 75.3337C23.0763 75.3337 22.5147 75.0831 22.1501 74.5818C21.7856 74.0772 21.5968 73.3253 21.5837 72.3259V71.1199C21.5837 70.0749 21.7644 69.2986 22.1257 68.7908C22.4871 68.283 23.0535 68.029 23.825 68.029C24.5899 68.029 25.1531 68.2748 25.5144 68.7663C25.8757 69.2546 26.0613 70.0098 26.071 71.032V72.2038ZM25.1677 70.9685C25.1677 70.2035 25.0603 69.6469 24.8455 69.2986C24.6306 68.947 24.2904 68.7712 23.825 68.7712C23.3627 68.7712 23.0258 68.9454 22.8142 69.2937C22.6026 69.642 22.4936 70.1775 22.4871 70.9001V72.3455C22.4871 73.1137 22.5977 73.6817 22.8191 74.0496C23.0437 74.4141 23.3822 74.5964 23.8347 74.5964C24.2807 74.5964 24.6111 74.4239 24.8259 74.0788C25.044 73.7338 25.158 73.1902 25.1677 72.448V70.9685Z" fill="#A3A3A3"/>
<path d="M13.9275 34.7845V35.5511H13.7615C13.0583 35.5641 12.4985 35.7724 12.0818 36.1761C11.6651 36.5797 11.4242 37.1477 11.3591 37.8802C11.7335 37.4505 12.2445 37.2356 12.8923 37.2356C13.5108 37.2356 14.004 37.4537 14.3718 37.8899C14.7429 38.3261 14.9285 38.8893 14.9285 39.5794C14.9285 40.3118 14.7283 40.8977 14.3279 41.3372C13.9307 41.7766 13.3969 41.9964 12.7263 41.9964C12.046 41.9964 11.4942 41.736 11.071 41.2151C10.6479 40.691 10.4363 40.0172 10.4363 39.1936V38.847C10.4363 37.5384 10.7146 36.539 11.2712 35.8489C11.8311 35.1555 12.6628 34.8007 13.7664 34.7845H13.9275ZM12.741 37.9876C12.4317 37.9876 12.1469 38.0804 11.8865 38.2659C11.6261 38.4514 11.4454 38.6842 11.3445 38.9641V39.2962C11.3445 39.8821 11.4763 40.3541 11.74 40.7122C12.0037 41.0703 12.3324 41.2493 12.7263 41.2493C13.1332 41.2493 13.4522 41.0996 13.6833 40.8001C13.9177 40.5006 14.0349 40.1083 14.0349 39.6233C14.0349 39.135 13.9161 38.7412 13.6785 38.4417C13.4441 38.1389 13.1316 37.9876 12.741 37.9876ZM20.4558 38.8665C20.4558 39.9244 20.2751 40.7106 19.9138 41.2249C19.5525 41.7392 18.9877 41.9964 18.2195 41.9964C17.461 41.9964 16.8995 41.7457 16.5349 41.2444C16.1703 40.7399 15.9815 39.9879 15.9685 38.9886V37.7825C15.9685 36.7376 16.1492 35.9612 16.5105 35.4534C16.8718 34.9456 17.4382 34.6917 18.2097 34.6917C18.9747 34.6917 19.5378 34.9374 19.8992 35.429C20.2605 35.9173 20.446 36.6725 20.4558 37.6946V38.8665ZM19.5525 37.6311C19.5525 36.8662 19.4451 36.3095 19.2302 35.9612C19.0154 35.6096 18.6752 35.4339 18.2097 35.4339C17.7475 35.4339 17.4106 35.608 17.199 35.9563C16.9874 36.3046 16.8783 36.8401 16.8718 37.5628V39.0081C16.8718 39.7763 16.9825 40.3444 17.2039 40.7122C17.4285 41.0768 17.767 41.2591 18.2195 41.2591C18.6654 41.2591 18.9958 41.0865 19.2107 40.7415C19.4288 40.3964 19.5427 39.8528 19.5525 39.1106V37.6311ZM26.071 38.8665C26.071 39.9244 25.8904 40.7106 25.5291 41.2249C25.1677 41.7392 24.6029 41.9964 23.8347 41.9964C23.0763 41.9964 22.5147 41.7457 22.1501 41.2444C21.7856 40.7399 21.5968 39.9879 21.5837 38.9886V37.7825C21.5837 36.7376 21.7644 35.9612 22.1257 35.4534C22.4871 34.9456 23.0535 34.6917 23.825 34.6917C24.5899 34.6917 25.1531 34.9374 25.5144 35.429C25.8757 35.9173 26.0613 36.6725 26.071 37.6946V38.8665ZM25.1677 37.6311C25.1677 36.8662 25.0603 36.3095 24.8455 35.9612C24.6306 35.6096 24.2904 35.4339 23.825 35.4339C23.3627 35.4339 23.0258 35.608 22.8142 35.9563C22.6026 36.3046 22.4936 36.8401 22.4871 37.5628V39.0081C22.4871 39.7763 22.5977 40.3444 22.8191 40.7122C23.0437 41.0768 23.3822 41.2591 23.8347 41.2591C24.2807 41.2591 24.6111 41.0865 24.8259 40.7415C25.044 40.3964 25.158 39.8528 25.1677 39.1106V37.6311Z" fill="#A3A3A3"/>
<path d="M6.04004 9H5.13184V2.97949L3.31055 3.64844V2.82812L5.89844 1.85645H6.04004V9ZM13.1445 5.96777C13.1445 7.02572 12.9639 7.81185 12.6025 8.32617C12.2412 8.84049 11.6764 9.09766 10.9082 9.09766C10.1497 9.09766 9.58822 8.84701 9.22363 8.3457C8.85905 7.84115 8.67025 7.08919 8.65723 6.08984V4.88379C8.65723 3.83887 8.83789 3.0625 9.19922 2.55469C9.56055 2.04688 10.127 1.79297 10.8984 1.79297C11.6634 1.79297 12.2266 2.03874 12.5879 2.53027C12.9492 3.01855 13.1348 3.77376 13.1445 4.7959V5.96777ZM12.2412 4.73242C12.2412 3.96745 12.1338 3.41081 11.9189 3.0625C11.7041 2.71094 11.3639 2.53516 10.8984 2.53516C10.4362 2.53516 10.0993 2.70931 9.8877 3.05762C9.67611 3.40592 9.56706 3.94141 9.56055 4.66406V6.10938C9.56055 6.8776 9.67122 7.44564 9.89258 7.81348C10.1172 8.17806 10.4557 8.36035 10.9082 8.36035C11.3542 8.36035 11.6846 8.18783 11.8994 7.84277C12.1175 7.49772 12.2314 6.9541 12.2412 6.21191V4.73242ZM18.7598 5.96777C18.7598 7.02572 18.5791 7.81185 18.2178 8.32617C17.8564 8.84049 17.2917 9.09766 16.5234 9.09766C15.765 9.09766 15.2035 8.84701 14.8389 8.3457C14.4743 7.84115 14.2855 7.08919 14.2725 6.08984V4.88379C14.2725 3.83887 14.4531 3.0625 14.8145 2.55469C15.1758 2.04688 15.7422 1.79297 16.5137 1.79297C17.2786 1.79297 17.8418 2.03874 18.2031 2.53027C18.5645 3.01855 18.75 3.77376 18.7598 4.7959V5.96777ZM17.8564 4.73242C17.8564 3.96745 17.749 3.41081 17.5342 3.0625C17.3193 2.71094 16.9792 2.53516 16.5137 2.53516C16.0514 2.53516 15.7145 2.70931 15.5029 3.05762C15.2913 3.40592 15.1823 3.94141 15.1758 4.66406V6.10938C15.1758 6.8776 15.2865 7.44564 15.5078 7.81348C15.7324 8.17806 16.071 8.36035 16.5234 8.36035C16.9694 8.36035 17.2998 8.18783 17.5146 7.84277C17.7327 7.49772 17.8467 6.9541 17.8564 6.21191V4.73242ZM24.375 5.96777C24.375 7.02572 24.1943 7.81185 23.833 8.32617C23.4717 8.84049 22.9069 9.09766 22.1387 9.09766C21.3802 9.09766 20.8187 8.84701 20.4541 8.3457C20.0895 7.84115 19.9007 7.08919 19.8877 6.08984V4.88379C19.8877 3.83887 20.0684 3.0625 20.4297 2.55469C20.791 2.04688 21.3574 1.79297 22.1289 1.79297C22.8939 1.79297 23.457 2.03874 23.8184 2.53027C24.1797 3.01855 24.3652 3.77376 24.375 4.7959V5.96777ZM23.4717 4.73242C23.4717 3.96745 23.3643 3.41081 23.1494 3.0625C22.9346 2.71094 22.5944 2.53516 22.1289 2.53516C21.6667 2.53516 21.3298 2.70931 21.1182 3.05762C20.9066 3.40592 20.7975 3.94141 20.791 4.66406V6.10938C20.791 6.8776 20.9017 7.44564 21.123 7.81348C21.3477 8.17806 21.6862 8.36035 22.1387 8.36035C22.5846 8.36035 22.915 8.18783 23.1299 7.84277C23.348 7.49772 23.4619 6.9541 23.4717 6.21191V4.73242Z" fill="#A3A3A3"/>
<path d="M96.8492 112.32V112.856H96.733C96.2408 112.865 95.8488 113.011 95.5572 113.294C95.2655 113.576 95.0969 113.974 95.0513 114.487C95.3134 114.186 95.6711 114.035 96.1246 114.035C96.5575 114.035 96.9027 114.188 97.1602 114.493C97.42 114.799 97.5499 115.193 97.5499 115.676C97.5499 116.189 97.4097 116.599 97.1294 116.906C96.8514 117.214 96.4777 117.368 96.0083 117.368C95.5321 117.368 95.1459 117.186 94.8497 116.821C94.5534 116.454 94.4053 115.982 94.4053 115.406V115.163C94.4053 114.247 94.6001 113.548 94.9898 113.065C95.3817 112.579 95.9639 112.331 96.7364 112.32H96.8492ZM96.0186 114.562C95.8021 114.562 95.6027 114.627 95.4205 114.757C95.2382 114.886 95.1117 115.049 95.0411 115.245V115.478C95.0411 115.888 95.1333 116.218 95.3179 116.469C95.5025 116.72 95.7326 116.845 96.0083 116.845C96.2932 116.845 96.5165 116.74 96.6783 116.531C96.8423 116.321 96.9244 116.046 96.9244 115.707C96.9244 115.365 96.8412 115.089 96.6749 114.88C96.5108 114.668 96.292 114.562 96.0186 114.562ZM102.383 117.3C102.346 117.227 102.317 117.097 102.294 116.91C102 117.215 101.649 117.368 101.241 117.368C100.877 117.368 100.577 117.265 100.342 117.06C100.11 116.853 99.9937 116.591 99.9937 116.274C99.9937 115.889 100.14 115.591 100.431 115.379C100.725 115.164 101.138 115.057 101.669 115.057H102.284V114.767C102.284 114.546 102.218 114.37 102.085 114.24C101.953 114.108 101.759 114.042 101.501 114.042C101.275 114.042 101.086 114.099 100.934 114.213C100.781 114.327 100.705 114.465 100.705 114.627H100.069C100.069 114.442 100.134 114.264 100.264 114.093C100.396 113.92 100.574 113.784 100.797 113.683C101.023 113.583 101.27 113.533 101.539 113.533C101.965 113.533 102.299 113.64 102.54 113.854C102.782 114.066 102.907 114.359 102.916 114.733V116.435C102.916 116.774 102.959 117.044 103.046 117.245V117.3H102.383ZM101.334 116.818C101.532 116.818 101.72 116.766 101.898 116.664C102.075 116.561 102.204 116.428 102.284 116.264V115.505H101.788C101.013 115.505 100.626 115.732 100.626 116.185C100.626 116.384 100.692 116.538 100.824 116.65C100.956 116.762 101.126 116.818 101.334 116.818ZM104.502 113.601L104.519 114.011C104.79 113.692 105.156 113.533 105.616 113.533C106.134 113.533 106.486 113.731 106.672 114.128C106.795 113.95 106.955 113.806 107.151 113.697C107.349 113.588 107.583 113.533 107.852 113.533C108.663 113.533 109.075 113.962 109.089 114.822V117.3H108.457V114.859C108.457 114.595 108.396 114.398 108.275 114.268C108.155 114.136 107.952 114.07 107.667 114.07C107.432 114.07 107.238 114.14 107.083 114.281C106.928 114.42 106.838 114.608 106.813 114.845V117.3H106.177V114.876C106.177 114.338 105.914 114.07 105.387 114.07C104.973 114.07 104.689 114.246 104.536 114.599V117.3H103.904V113.601H104.502Z" fill="black"/>
<line x1="102.668" y1="104.739" x2="102.668" y2="110.264" stroke="#C2C2C2" stroke-width="5"/>
<path d="M157.156 118.103H156.52V113.888L155.245 114.357V113.782L157.057 113.102H157.156V118.103ZM162.269 118.103H159.009V117.648L160.731 115.734C160.986 115.445 161.162 115.21 161.258 115.03C161.356 114.848 161.405 114.66 161.405 114.466C161.405 114.206 161.326 113.993 161.169 113.827C161.012 113.661 160.802 113.577 160.54 113.577C160.225 113.577 159.98 113.667 159.805 113.847C159.632 114.025 159.545 114.273 159.545 114.593H158.913C158.913 114.134 159.06 113.764 159.354 113.482C159.65 113.199 160.045 113.058 160.54 113.058C161.002 113.058 161.368 113.18 161.637 113.424C161.906 113.665 162.04 113.988 162.04 114.391C162.04 114.881 161.728 115.464 161.104 116.141L159.771 117.587H162.269V118.103ZM167.865 116.295C167.865 116.857 167.736 117.311 167.478 117.655C167.221 117.999 166.872 118.171 166.432 118.171C165.984 118.171 165.63 118.029 165.373 117.744V119.525H164.741V114.405H165.318L165.349 114.815C165.606 114.496 165.964 114.336 166.422 114.336C166.867 114.336 167.217 114.504 167.475 114.839C167.735 115.174 167.865 115.64 167.865 116.237V116.295ZM167.232 116.223C167.232 115.806 167.143 115.477 166.966 115.235C166.788 114.994 166.544 114.873 166.234 114.873C165.851 114.873 165.564 115.043 165.373 115.382V117.149C165.562 117.486 165.851 117.655 166.241 117.655C166.544 117.655 166.785 117.535 166.962 117.296C167.142 117.055 167.232 116.697 167.232 116.223ZM169.266 114.405L169.283 114.815C169.554 114.496 169.92 114.336 170.38 114.336C170.897 114.336 171.25 114.534 171.436 114.931C171.559 114.753 171.719 114.61 171.915 114.5C172.113 114.391 172.347 114.336 172.616 114.336C173.427 114.336 173.839 114.766 173.853 115.625V118.103H173.221V115.662C173.221 115.398 173.16 115.201 173.039 115.071C172.919 114.939 172.716 114.873 172.431 114.873C172.196 114.873 172.001 114.943 171.847 115.085C171.692 115.224 171.602 115.412 171.576 115.649V118.103H170.941V115.679C170.941 115.142 170.678 114.873 170.151 114.873C169.736 114.873 169.453 115.049 169.3 115.403V118.103H168.668V114.405H169.266Z" fill="black"/>
<path d="M217.88 112.32V112.856H217.764C217.272 112.865 216.88 113.011 216.588 113.294C216.296 113.576 216.128 113.974 216.082 114.487C216.344 114.186 216.702 114.035 217.155 114.035C217.588 114.035 217.933 114.188 218.191 114.493C218.451 114.799 218.581 115.193 218.581 115.676C218.581 116.189 218.44 116.599 218.16 116.906C217.882 117.214 217.508 117.368 217.039 117.368C216.563 117.368 216.177 117.186 215.88 116.821C215.584 116.454 215.436 115.982 215.436 115.406V115.163C215.436 114.247 215.631 113.548 216.021 113.065C216.412 112.579 216.995 112.331 217.767 112.32H217.88ZM217.049 114.562C216.833 114.562 216.633 114.627 216.451 114.757C216.269 114.886 216.142 115.049 216.072 115.245V115.478C216.072 115.888 216.164 116.218 216.349 116.469C216.533 116.72 216.763 116.845 217.039 116.845C217.324 116.845 217.547 116.74 217.709 116.531C217.873 116.321 217.955 116.046 217.955 115.707C217.955 115.365 217.872 115.089 217.706 114.88C217.542 114.668 217.323 114.562 217.049 114.562ZM224.254 115.491C224.254 116.054 224.126 116.508 223.868 116.852C223.611 117.196 223.262 117.368 222.822 117.368C222.373 117.368 222.02 117.225 221.763 116.941V118.721H221.13V113.601H221.708L221.739 114.011C221.996 113.692 222.354 113.533 222.812 113.533C223.256 113.533 223.607 113.7 223.865 114.035C224.125 114.37 224.254 114.836 224.254 115.433V115.491ZM223.622 115.42C223.622 115.003 223.533 114.673 223.355 114.432C223.178 114.19 222.934 114.07 222.624 114.07C222.241 114.07 221.954 114.239 221.763 114.579V116.346C221.952 116.683 222.241 116.852 222.631 116.852C222.934 116.852 223.174 116.732 223.352 116.493C223.532 116.251 223.622 115.894 223.622 115.42ZM225.656 113.601L225.673 114.011C225.944 113.692 226.31 113.533 226.77 113.533C227.287 113.533 227.639 113.731 227.826 114.128C227.949 113.95 228.109 113.806 228.305 113.697C228.503 113.588 228.737 113.533 229.005 113.533C229.817 113.533 230.229 113.962 230.243 114.822V117.3H229.61V114.859C229.61 114.595 229.55 114.398 229.429 114.268C229.308 114.136 229.106 114.07 228.821 114.07C228.586 114.07 228.391 114.14 228.236 114.281C228.081 114.42 227.991 114.608 227.966 114.845V117.3H227.331V114.876C227.331 114.338 227.067 114.07 226.541 114.07C226.126 114.07 225.843 114.246 225.69 114.599V117.3H225.058V113.601H225.656Z" fill="black"/>
<path d="M65.3994 114.504H65.8745C66.173 114.499 66.4077 114.42 66.5786 114.268C66.7495 114.115 66.8349 113.909 66.8349 113.649C66.8349 113.066 66.5444 112.774 65.9633 112.774C65.6899 112.774 65.4712 112.853 65.3071 113.01C65.1453 113.165 65.0644 113.371 65.0644 113.629H64.4321C64.4321 113.234 64.5757 112.907 64.8628 112.648C65.1522 112.386 65.519 112.255 65.9633 112.255C66.4327 112.255 66.8008 112.379 67.0674 112.627C67.334 112.876 67.4673 113.221 67.4673 113.663C67.4673 113.879 67.3966 114.089 67.2553 114.292C67.1163 114.495 66.9261 114.646 66.6845 114.746C66.958 114.833 67.1688 114.976 67.3169 115.177C67.4673 115.378 67.5424 115.622 67.5424 115.912C67.5424 116.358 67.3966 116.713 67.1049 116.975C66.8133 117.237 66.4339 117.368 65.9668 117.368C65.4996 117.368 65.1191 117.241 64.8252 116.989C64.5335 116.736 64.3877 116.402 64.3877 115.987H65.0234C65.0234 116.249 65.1089 116.459 65.2798 116.616C65.4507 116.773 65.6797 116.852 65.9668 116.852C66.2721 116.852 66.5057 116.772 66.6674 116.613C66.8292 116.453 66.9101 116.224 66.9101 115.926C66.9101 115.636 66.8213 115.414 66.6435 115.259C66.4658 115.104 66.2094 115.024 65.8745 115.02H65.3994V114.504ZM72.4951 117.3C72.4586 117.227 72.429 117.097 72.4062 116.91C72.1123 117.215 71.7614 117.368 71.3535 117.368C70.9889 117.368 70.6893 117.265 70.4546 117.06C70.2221 116.853 70.1059 116.591 70.1059 116.274C70.1059 115.889 70.2518 115.591 70.5434 115.379C70.8374 115.164 71.2498 115.057 71.7807 115.057H72.396V114.767C72.396 114.546 72.3299 114.37 72.1977 114.24C72.0656 114.108 71.8707 114.042 71.6133 114.042C71.3877 114.042 71.1985 114.099 71.0459 114.213C70.8932 114.327 70.8169 114.465 70.8169 114.627H70.1811C70.1811 114.442 70.2461 114.264 70.3759 114.093C70.5081 113.92 70.6858 113.784 70.9091 113.683C71.1347 113.583 71.382 113.533 71.6508 113.533C72.077 113.533 72.4108 113.64 72.6523 113.854C72.8938 114.066 73.0192 114.359 73.0283 114.733V116.435C73.0283 116.774 73.0716 117.044 73.1582 117.245V117.3H72.4951ZM71.4458 116.818C71.644 116.818 71.832 116.766 72.0097 116.664C72.1875 116.561 72.3162 116.428 72.396 116.264V115.505H71.9004C71.1256 115.505 70.7383 115.732 70.7383 116.185C70.7383 116.384 70.8043 116.538 70.9365 116.65C71.0687 116.762 71.2384 116.818 71.4458 116.818ZM74.6142 113.601L74.6313 114.011C74.9025 113.692 75.2682 113.533 75.7285 113.533C76.2457 113.533 76.5978 113.731 76.7846 114.128C76.9077 113.95 77.0672 113.806 77.2632 113.697C77.4614 113.588 77.695 113.533 77.9638 113.533C78.775 113.533 79.1875 113.962 79.2011 114.822V117.3H78.5688V114.859C78.5688 114.595 78.5084 114.398 78.3877 114.268C78.2669 114.136 78.0641 114.07 77.7793 114.07C77.5446 114.07 77.3497 114.14 77.1948 114.281C77.0398 114.42 76.9498 114.608 76.9248 114.845V117.3H76.289V114.876C76.289 114.338 76.0258 114.07 75.4995 114.07C75.0848 114.07 74.8011 114.246 74.6484 114.599V117.3H74.0161V113.601H74.6142Z" fill="black"/>
<line x1="72.7807" y1="104.739" x2="72.7807" y2="110.264" stroke="#C2C2C2" stroke-width="5"/>
<line x1="223.699" y1="104.739" x2="223.699" y2="110.264" stroke="#C2C2C2" stroke-width="5"/>
<line x1="163.628" y1="105.43" x2="163.628" y2="110.954" stroke="#C2C2C2" stroke-width="5"/>
<path d="M248.527 114.784C248.395 114.942 248.237 115.068 248.052 115.164C247.87 115.26 247.669 115.307 247.45 115.307C247.163 115.307 246.913 115.237 246.698 115.096C246.487 114.954 246.322 114.756 246.206 114.501C246.09 114.243 246.032 113.96 246.032 113.65C246.032 113.317 246.095 113.017 246.22 112.751C246.348 112.484 246.528 112.28 246.76 112.139C246.992 111.998 247.264 111.927 247.573 111.927C248.066 111.927 248.453 112.112 248.736 112.481C249.02 112.848 249.163 113.349 249.163 113.985V114.169C249.163 115.138 248.971 115.845 248.589 116.292C248.206 116.736 247.628 116.964 246.856 116.975H246.733V116.442H246.866C247.388 116.433 247.789 116.298 248.069 116.035C248.349 115.771 248.502 115.354 248.527 114.784ZM247.553 114.784C247.765 114.784 247.96 114.72 248.137 114.59C248.317 114.46 248.448 114.299 248.531 114.108V113.855C248.531 113.44 248.44 113.103 248.26 112.843C248.08 112.583 247.853 112.453 247.577 112.453C247.299 112.453 247.076 112.561 246.907 112.775C246.738 112.987 246.654 113.267 246.654 113.616C246.654 113.955 246.735 114.235 246.897 114.456C247.061 114.675 247.28 114.784 247.553 114.784ZM254.96 115.164C254.96 115.727 254.831 116.18 254.573 116.524C254.316 116.868 253.967 117.04 253.528 117.04C253.079 117.04 252.725 116.898 252.468 116.613V118.394H251.836V113.274H252.413L252.444 113.684C252.702 113.365 253.059 113.205 253.517 113.205C253.962 113.205 254.313 113.373 254.57 113.708C254.83 114.043 254.96 114.509 254.96 115.106V115.164ZM254.327 115.092C254.327 114.675 254.239 114.346 254.061 114.104C253.883 113.863 253.639 113.742 253.329 113.742C252.947 113.742 252.659 113.912 252.468 114.251V116.018C252.657 116.356 252.947 116.524 253.336 116.524C253.639 116.524 253.88 116.405 254.057 116.165C254.237 115.924 254.327 115.566 254.327 115.092ZM256.361 113.274L256.378 113.684C256.649 113.365 257.015 113.205 257.475 113.205C257.993 113.205 258.345 113.404 258.531 113.8C258.655 113.622 258.814 113.479 259.01 113.369C259.208 113.26 259.442 113.205 259.711 113.205C260.522 113.205 260.934 113.635 260.948 114.494V116.972H260.316V114.532C260.316 114.267 260.255 114.07 260.135 113.94C260.014 113.808 259.811 113.742 259.526 113.742C259.291 113.742 259.097 113.813 258.942 113.954C258.787 114.093 258.697 114.281 258.672 114.518V116.972H258.036V114.549C258.036 114.011 257.773 113.742 257.246 113.742C256.832 113.742 256.548 113.919 256.395 114.272V116.972H255.763V113.274H256.361Z" fill="black"/>
<path d="M185.962 115.307H186.438C186.736 115.302 186.971 115.224 187.142 115.071C187.312 114.918 187.398 114.712 187.398 114.452C187.398 113.869 187.107 113.577 186.526 113.577C186.253 113.577 186.034 113.656 185.87 113.813C185.708 113.968 185.627 114.174 185.627 114.432H184.995C184.995 114.038 185.139 113.711 185.426 113.451C185.715 113.189 186.082 113.058 186.526 113.058C186.996 113.058 187.364 113.182 187.63 113.43C187.897 113.679 188.03 114.024 188.03 114.466C188.03 114.683 187.96 114.892 187.818 115.095C187.679 115.298 187.489 115.449 187.248 115.55C187.521 115.636 187.732 115.78 187.88 115.98C188.03 116.181 188.105 116.426 188.105 116.715C188.105 117.162 187.96 117.516 187.668 117.778C187.376 118.04 186.997 118.171 186.53 118.171C186.063 118.171 185.682 118.045 185.388 117.792C185.097 117.539 184.951 117.205 184.951 116.79H185.586C185.586 117.052 185.672 117.262 185.843 117.419C186.014 117.576 186.243 117.655 186.53 117.655C186.835 117.655 187.069 117.575 187.23 117.416C187.392 117.256 187.473 117.027 187.473 116.729C187.473 116.439 187.384 116.217 187.207 116.062C187.029 115.907 186.772 115.828 186.438 115.823H185.962V115.307ZM193.899 116.295C193.899 116.857 193.77 117.311 193.513 117.655C193.255 117.999 192.907 118.171 192.467 118.171C192.018 118.171 191.665 118.029 191.407 117.744V119.525H190.775V114.405H191.353L191.383 114.815C191.641 114.496 191.999 114.336 192.457 114.336C192.901 114.336 193.252 114.504 193.509 114.839C193.769 115.174 193.899 115.64 193.899 116.237V116.295ZM193.267 116.223C193.267 115.806 193.178 115.477 193 115.235C192.822 114.994 192.578 114.873 192.269 114.873C191.886 114.873 191.599 115.043 191.407 115.382V117.149C191.596 117.486 191.886 117.655 192.275 117.655C192.578 117.655 192.819 117.535 192.997 117.296C193.177 117.055 193.267 116.697 193.267 116.223ZM195.3 114.405L195.317 114.815C195.589 114.496 195.954 114.336 196.415 114.336C196.932 114.336 197.284 114.534 197.471 114.931C197.594 114.753 197.753 114.61 197.949 114.5C198.147 114.391 198.381 114.336 198.65 114.336C199.461 114.336 199.874 114.766 199.887 115.625V118.103H199.255V115.662C199.255 115.398 199.194 115.201 199.074 115.071C198.953 114.939 198.75 114.873 198.465 114.873C198.231 114.873 198.036 114.943 197.881 115.085C197.726 115.224 197.636 115.412 197.611 115.649V118.103H196.975V115.679C196.975 115.142 196.712 114.873 196.186 114.873C195.771 114.873 195.487 115.049 195.334 115.403V118.103H194.702V114.405H195.3Z" fill="black"/>
<path d="M126.406 115.35C126.273 115.507 126.115 115.634 125.93 115.729C125.748 115.825 125.548 115.873 125.329 115.873C125.042 115.873 124.791 115.802 124.577 115.661C124.365 115.52 124.201 115.321 124.085 115.066C123.969 114.809 123.91 114.525 123.91 114.215C123.91 113.882 123.973 113.583 124.098 113.316C124.226 113.05 124.406 112.846 124.638 112.704C124.871 112.563 125.142 112.492 125.452 112.492C125.944 112.492 126.331 112.677 126.614 113.046C126.899 113.413 127.041 113.914 127.041 114.55V114.735C127.041 115.703 126.85 116.411 126.467 116.857C126.084 117.302 125.507 117.529 124.734 117.541H124.611V117.008H124.744C125.266 116.998 125.667 116.863 125.948 116.601C126.228 116.337 126.38 115.92 126.406 115.35ZM125.431 115.35C125.643 115.35 125.838 115.285 126.016 115.155C126.196 115.025 126.327 114.865 126.409 114.673V114.42C126.409 114.005 126.319 113.668 126.139 113.408C125.959 113.149 125.731 113.019 125.455 113.019C125.177 113.019 124.954 113.126 124.785 113.34C124.617 113.552 124.533 113.832 124.533 114.181C124.533 114.52 124.613 114.801 124.775 115.022C124.939 115.241 125.158 115.35 125.431 115.35ZM131.997 117.537C131.961 117.464 131.931 117.335 131.908 117.148C131.615 117.453 131.264 117.606 130.856 117.606C130.491 117.606 130.192 117.503 129.957 117.298C129.724 117.091 129.608 116.829 129.608 116.512C129.608 116.127 129.754 115.828 130.046 115.616C130.34 115.402 130.752 115.295 131.283 115.295H131.898V115.005C131.898 114.784 131.832 114.608 131.7 114.478C131.568 114.346 131.373 114.28 131.116 114.28C130.89 114.28 130.701 114.337 130.548 114.451C130.395 114.565 130.319 114.703 130.319 114.865H129.683C129.683 114.68 129.748 114.502 129.878 114.331C130.01 114.158 130.188 114.021 130.411 113.921C130.637 113.821 130.884 113.771 131.153 113.771C131.579 113.771 131.913 113.878 132.155 114.092C132.396 114.304 132.521 114.597 132.531 114.97V116.673C132.531 117.012 132.574 117.282 132.66 117.483V117.537H131.997ZM130.948 117.055C131.146 117.055 131.334 117.004 131.512 116.902C131.69 116.799 131.818 116.666 131.898 116.502V115.743H131.403C130.628 115.743 130.241 115.97 130.241 116.423C130.241 116.621 130.307 116.776 130.439 116.888C130.571 117 130.741 117.055 130.948 117.055ZM134.116 113.839L134.134 114.249C134.405 113.93 134.77 113.771 135.231 113.771C135.748 113.771 136.1 113.969 136.287 114.366C136.41 114.188 136.569 114.044 136.765 113.935C136.964 113.825 137.197 113.771 137.466 113.771C138.277 113.771 138.69 114.2 138.703 115.059V117.537H138.071V115.097C138.071 114.833 138.011 114.636 137.89 114.506C137.769 114.373 137.566 114.307 137.282 114.307C137.047 114.307 136.852 114.378 136.697 114.519C136.542 114.658 136.452 114.846 136.427 115.083V117.537H135.791V115.114C135.791 114.576 135.528 114.307 135.002 114.307C134.587 114.307 134.303 114.484 134.151 114.837V117.537H133.518V113.839H134.116Z" fill="black"/>
<line x1="132.288" y1="104.753" x2="132.288" y2="110.407" stroke="#C2C2C2" stroke-width="5"/>
<line x1="193.349" y1="105.318" x2="193.349" y2="110.972" stroke="#C2C2C2" stroke-width="5"/>
<line x1="252.713" y1="105.318" x2="252.713" y2="110.972" stroke="#C2C2C2" stroke-width="5"/>
</svg>
