<svg width="291" height="125" viewBox="0 0 291 125" fill="none" xmlns="http://www.w3.org/2000/svg">
<path d="M33.9832 71.3066H290.296" stroke="#D6D6D6"/>
<path d="M33.9832 37.9693H290.296" stroke="#D6D6D6"/>
<path d="M33.9832 7.26379H290.296" stroke="#D6D6D6"/>
<path d="M37.6313 97.4241C37.6313 95.3945 39.2766 93.7492 41.3062 93.7492C43.3359 93.7492 44.9812 95.3945 44.9812 97.4242V103.643C44.9812 105.673 43.3359 107.318 41.3062 107.318C39.2766 107.318 37.6313 105.673 37.6313 103.643V97.4241Z" fill="#85D2FF"/>
<path d="M47.2426 96.8588C47.2426 94.8291 48.888 93.1838 50.9176 93.1838C52.9472 93.1838 54.5926 94.8291 54.5926 96.8588V103.643C54.5926 105.673 52.9472 107.318 50.9176 107.318C48.888 107.318 47.2426 105.673 47.2426 103.643V96.8588Z" fill="#85D2FF"/>
<path d="M57.4195 97.4241C57.4195 95.3945 59.0648 93.7492 61.0944 93.7492C63.1241 93.7492 64.7694 95.3945 64.7694 97.4242V103.643C64.7694 105.673 63.1241 107.318 61.0944 107.318C59.0648 107.318 57.4195 105.673 57.4195 103.643V97.4241Z" fill="#85D2FF"/>
<path d="M67.5963 97.4241C67.5963 95.3945 69.2416 93.7492 71.2712 93.7492C73.3009 93.7492 74.9462 95.3945 74.9462 97.4242V103.643C74.9462 105.673 73.3009 107.318 71.2712 107.318C69.2416 107.318 67.5963 105.673 67.5963 103.643V97.4241Z" fill="#85D2FF"/>
<path d="M77.2077 97.1414C77.2077 94.9557 78.9796 93.1838 81.1653 93.1838C83.3511 93.1838 85.123 94.9557 85.123 97.1414V103.361C85.123 105.546 83.3511 107.318 81.1653 107.318C78.9796 107.318 77.2077 105.546 77.2077 103.361V97.1414Z" fill="#85D2FF"/>
<path d="M87.4439 90.2149C87.4439 88.0903 89.1663 86.368 91.2909 86.368C93.4155 86.368 95.1378 88.0903 95.1378 90.2149V103.583C95.1378 105.708 93.4155 107.43 91.2909 107.43C89.1663 107.43 87.4439 105.708 87.4439 103.583V90.2149Z" fill="#85D2FF"/>
<path d="M97.2093 78.1302C97.2093 76.0056 98.9316 74.2833 101.056 74.2833C103.181 74.2833 104.903 76.0056 104.903 78.1302V103.583C104.903 105.708 103.181 107.43 101.056 107.43C98.9316 107.43 97.2093 105.708 97.2093 103.583V78.1302Z" fill="#85D2FF"/>
<path d="M107.566 60.5211C107.566 58.3965 109.289 56.6742 111.413 56.6742C113.538 56.6742 115.26 58.3965 115.26 60.5211V103.583C115.26 105.708 113.538 107.43 111.413 107.43C109.289 107.43 107.566 105.708 107.566 103.583V60.5211Z" fill="#85D2FF"/>
<path d="M117.628 77.9823C117.628 75.9394 119.284 74.2833 121.327 74.2833C123.37 74.2833 125.026 75.9394 125.026 77.9823V103.731C125.026 105.774 123.37 107.43 121.327 107.43C119.284 107.43 117.628 105.774 117.628 103.731V77.9823Z" fill="#85D2FF"/>
<path d="M127.393 55.8846C127.393 53.8417 129.049 52.1856 131.092 52.1856C133.135 52.1856 134.791 53.8417 134.791 55.8846V103.731C134.791 105.774 133.135 107.43 131.092 107.43C129.049 107.43 127.393 105.774 127.393 103.731V55.8846Z" fill="#85D2FF"/>
<path d="M137.75 43.4546C137.75 41.4117 139.406 39.7556 141.449 39.7556C143.492 39.7556 145.148 41.4117 145.148 43.4546V103.731C145.148 105.774 143.492 107.43 141.449 107.43C139.406 107.43 137.75 105.774 137.75 103.731V43.4546Z" fill="#85D2FF"/>
<path d="M147.515 32.0605C147.515 30.0176 149.172 28.3615 151.214 28.3615C153.257 28.3615 154.913 30.0176 154.913 32.0605V103.731C154.913 105.774 153.257 107.43 151.214 107.43C149.172 107.43 147.515 105.774 147.515 103.731V67.8957V32.0605Z" fill="#85D2FF"/>
<path d="M157.281 60.6691C157.281 58.4628 159.069 56.6742 161.276 56.6742C163.482 56.6742 165.271 58.4628 165.271 60.6691V103.435C165.271 105.641 163.482 107.43 161.276 107.43C159.069 107.43 157.281 105.641 157.281 103.435V60.6691Z" fill="#85D2FF"/>
<path d="M177.403 44.8357C177.403 42.7928 179.059 41.1368 181.102 41.1368C183.145 41.1368 184.801 42.7928 184.801 44.8357V103.731C184.801 105.774 183.145 107.43 181.102 107.43C179.059 107.43 177.403 105.774 177.403 103.731V44.8357Z" fill="#85D2FF"/>
<path d="M194.658 64.1712V103.731C194.658 105.498 193.226 106.93 191.459 106.93C189.693 106.93 188.26 105.498 188.26 103.731V64.1712C188.26 62.4045 189.693 60.9723 191.459 60.9723C193.226 60.9723 194.658 62.4045 194.658 64.1712Z" stroke="#85D2FF"/>
<path d="M204.424 26.5361V103.731C204.424 105.498 202.991 106.93 201.225 106.93C199.458 106.93 198.026 105.498 198.026 103.731V26.5361C198.026 24.7693 199.458 23.3371 201.225 23.3371C202.991 23.3371 204.424 24.7693 204.424 26.5361Z" stroke="#85D2FF"/>
<path d="M214.485 21.8502V103.583C214.485 105.431 212.986 106.93 211.138 106.93C209.289 106.93 207.791 105.431 207.791 103.583V21.8502C207.791 20.0017 209.289 18.5032 211.138 18.5032C212.986 18.5032 214.485 20.0017 214.485 21.8502Z" stroke="#85D2FF"/>
<path d="M224.842 60.5211V103.583C224.842 105.431 223.344 106.93 221.495 106.93C219.647 106.93 218.148 105.431 218.148 103.583V60.5211C218.148 58.6727 219.647 57.1742 221.495 57.1742C223.344 57.1742 224.842 58.6727 224.842 60.5211Z" stroke="#85D2FF"/>
<path d="M234.607 56.0325V103.583C234.607 105.431 233.109 106.93 231.26 106.93C229.412 106.93 227.913 105.431 227.913 103.583V56.0325C227.913 54.1841 229.412 52.6856 231.26 52.6856C233.109 52.6856 234.607 54.1841 234.607 56.0325Z" stroke="#85D2FF"/>
<path d="M244.964 83.26V103.287C244.964 105.299 243.334 106.93 241.322 106.93C239.31 106.93 237.679 105.299 237.679 103.287V83.26C237.679 81.2481 239.31 79.6172 241.322 79.6172C243.334 79.6172 244.964 81.2481 244.964 83.26Z" stroke="#85D2FF"/>
<path d="M254.73 64.3192V102.892C254.73 104.741 253.231 106.239 251.383 106.239C249.534 106.239 248.036 104.741 248.036 102.892V64.3192C248.036 62.4707 249.534 60.9723 251.383 60.9723C253.231 60.9723 254.73 62.4707 254.73 64.3192Z" stroke="#85D2FF"/>
<path d="M264.495 82.8162V103.731C264.495 105.498 263.063 106.93 261.296 106.93C259.529 106.93 258.097 105.498 258.097 103.731V82.8162C258.097 81.0494 259.529 79.6172 261.296 79.6172C263.063 79.6172 264.495 81.0494 264.495 82.8162Z" stroke="#85D2FF"/>
<path d="M274.852 96.6272V103.04C274.852 104.807 273.42 106.239 271.653 106.239C269.887 106.239 268.454 104.807 268.454 103.04V96.6272C268.454 94.8604 269.887 93.4282 271.653 93.4282C273.42 93.4282 274.852 94.8604 274.852 96.6272Z" stroke="#85D2FF"/>
<path d="M284.767 96.8588V103.078C284.767 104.831 283.345 106.253 281.592 106.253C279.838 106.253 278.417 104.831 278.417 103.078V96.8587C278.417 95.1053 279.838 93.6838 281.592 93.6838C283.345 93.6838 284.767 95.1053 284.767 96.8588Z" stroke="#85D2FF"/>
<path d="M167.638 77.9823C167.638 75.9394 169.294 74.2833 171.337 74.2833C173.38 74.2833 175.036 75.9394 175.036 77.9823V103.731C175.036 105.774 173.38 107.43 171.337 107.43C169.294 107.43 167.638 105.774 167.638 103.731V77.9823Z" fill="#85D2FF"/>
<path d="M33.983 107.276H289.144" stroke="#C2C2C2" stroke-width="3"/>
<path d="M11.696 73.2419H12.3748C12.8012 73.2354 13.1365 73.1231 13.3806 72.905C13.6248 72.6869 13.7468 72.3923 13.7468 72.0212C13.7468 71.1879 13.3318 70.7712 12.5017 70.7712C12.1111 70.7712 11.7986 70.8835 11.5642 71.1081C11.3331 71.3295 11.2175 71.6241 11.2175 71.9919H10.3142C10.3142 71.4288 10.5193 70.9617 10.9294 70.5906C11.3429 70.2162 11.8669 70.029 12.5017 70.029C13.1723 70.029 13.698 70.2065 14.0789 70.5613C14.4597 70.9161 14.6501 71.4093 14.6501 72.0408C14.6501 72.35 14.5492 72.6495 14.3474 72.9392C14.1488 73.2289 13.877 73.4454 13.532 73.5886C13.9226 73.7123 14.2237 73.9174 14.4353 74.2038C14.6501 74.4903 14.7576 74.8402 14.7576 75.2537C14.7576 75.8917 14.5492 76.3979 14.1326 76.7722C13.7159 77.1466 13.1739 77.3337 12.5066 77.3337C11.8393 77.3337 11.2957 77.1531 10.8757 76.7917C10.4591 76.4304 10.2507 75.9535 10.2507 75.3611H11.1589C11.1589 75.7354 11.281 76.0349 11.5251 76.2595C11.7693 76.4841 12.0964 76.5964 12.5066 76.5964C12.9428 76.5964 13.2764 76.4825 13.5076 76.2546C13.7387 76.0268 13.8542 75.6996 13.8542 75.2732C13.8542 74.8598 13.7273 74.5424 13.4734 74.321C13.2195 74.0997 12.8533 73.9858 12.3748 73.9792H11.696V73.2419ZM20.4558 74.2038C20.4558 75.2618 20.2751 76.0479 19.9138 76.5622C19.5525 77.0766 18.9877 77.3337 18.2195 77.3337C17.461 77.3337 16.8995 77.0831 16.5349 76.5818C16.1703 76.0772 15.9815 75.3253 15.9685 74.3259V73.1199C15.9685 72.0749 16.1492 71.2986 16.5105 70.7908C16.8718 70.283 17.4382 70.029 18.2097 70.029C18.9747 70.029 19.5378 70.2748 19.8992 70.7663C20.2605 71.2546 20.446 72.0098 20.4558 73.032V74.2038ZM19.5525 72.9685C19.5525 72.2035 19.4451 71.6469 19.2302 71.2986C19.0154 70.947 18.6752 70.7712 18.2097 70.7712C17.7475 70.7712 17.4106 70.9454 17.199 71.2937C16.9874 71.642 16.8783 72.1775 16.8718 72.9001V74.3455C16.8718 75.1137 16.9825 75.6817 17.2039 76.0496C17.4285 76.4141 17.767 76.5964 18.2195 76.5964C18.6654 76.5964 18.9958 76.4239 19.2107 76.0788C19.4288 75.7338 19.5427 75.1902 19.5525 74.448V72.9685ZM26.071 74.2038C26.071 75.2618 25.8904 76.0479 25.5291 76.5622C25.1677 77.0766 24.6029 77.3337 23.8347 77.3337C23.0763 77.3337 22.5147 77.0831 22.1501 76.5818C21.7856 76.0772 21.5968 75.3253 21.5837 74.3259V73.1199C21.5837 72.0749 21.7644 71.2986 22.1257 70.7908C22.4871 70.283 23.0535 70.029 23.825 70.029C24.5899 70.029 25.1531 70.2748 25.5144 70.7663C25.8757 71.2546 26.0613 72.0098 26.071 73.032V74.2038ZM25.1677 72.9685C25.1677 72.2035 25.0603 71.6469 24.8455 71.2986C24.6306 70.947 24.2904 70.7712 23.825 70.7712C23.3627 70.7712 23.0258 70.9454 22.8142 71.2937C22.6026 71.642 22.4936 72.1775 22.4871 72.9001V74.3455C22.4871 75.1137 22.5977 75.6817 22.8191 76.0496C23.0437 76.4141 23.3822 76.5964 23.8347 76.5964C24.2807 76.5964 24.6111 76.4239 24.8259 76.0788C25.044 75.7338 25.158 75.1902 25.1677 74.448V72.9685Z" fill="#A3A3A3"/>
<path d="M13.9275 36.7845V37.5511H13.7615C13.0583 37.5641 12.4985 37.7724 12.0818 38.1761C11.6651 38.5797 11.4242 39.1477 11.3591 39.8802C11.7335 39.4505 12.2445 39.2356 12.8923 39.2356C13.5108 39.2356 14.004 39.4537 14.3718 39.8899C14.7429 40.3261 14.9285 40.8893 14.9285 41.5794C14.9285 42.3118 14.7283 42.8977 14.3279 43.3372C13.9307 43.7766 13.3969 43.9964 12.7263 43.9964C12.046 43.9964 11.4942 43.736 11.071 43.2151C10.6479 42.691 10.4363 42.0172 10.4363 41.1936V40.847C10.4363 39.5384 10.7146 38.539 11.2712 37.8489C11.8311 37.1555 12.6628 36.8007 13.7664 36.7845H13.9275ZM12.741 39.9876C12.4317 39.9876 12.1469 40.0804 11.8865 40.2659C11.6261 40.4514 11.4454 40.6842 11.3445 40.9641V41.2962C11.3445 41.8821 11.4763 42.3541 11.74 42.7122C12.0037 43.0703 12.3324 43.2493 12.7263 43.2493C13.1332 43.2493 13.4522 43.0996 13.6833 42.8001C13.9177 42.5006 14.0349 42.1083 14.0349 41.6233C14.0349 41.135 13.9161 40.7412 13.6785 40.4417C13.4441 40.1389 13.1316 39.9876 12.741 39.9876ZM20.4558 40.8665C20.4558 41.9244 20.2751 42.7106 19.9138 43.2249C19.5525 43.7392 18.9877 43.9964 18.2195 43.9964C17.461 43.9964 16.8995 43.7457 16.5349 43.2444C16.1703 42.7399 15.9815 41.9879 15.9685 40.9886V39.7825C15.9685 38.7376 16.1492 37.9612 16.5105 37.4534C16.8718 36.9456 17.4382 36.6917 18.2097 36.6917C18.9747 36.6917 19.5378 36.9374 19.8992 37.429C20.2605 37.9173 20.446 38.6725 20.4558 39.6946V40.8665ZM19.5525 39.6311C19.5525 38.8662 19.4451 38.3095 19.2302 37.9612C19.0154 37.6096 18.6752 37.4339 18.2097 37.4339C17.7475 37.4339 17.4106 37.608 17.199 37.9563C16.9874 38.3046 16.8783 38.8401 16.8718 39.5628V41.0081C16.8718 41.7763 16.9825 42.3444 17.2039 42.7122C17.4285 43.0768 17.767 43.2591 18.2195 43.2591C18.6654 43.2591 18.9958 43.0865 19.2107 42.7415C19.4288 42.3964 19.5427 41.8528 19.5525 41.1106V39.6311ZM26.071 40.8665C26.071 41.9244 25.8904 42.7106 25.5291 43.2249C25.1677 43.7392 24.6029 43.9964 23.8347 43.9964C23.0763 43.9964 22.5147 43.7457 22.1501 43.2444C21.7856 42.7399 21.5968 41.9879 21.5837 40.9886V39.7825C21.5837 38.7376 21.7644 37.9612 22.1257 37.4534C22.4871 36.9456 23.0535 36.6917 23.825 36.6917C24.5899 36.6917 25.1531 36.9374 25.5144 37.429C25.8757 37.9173 26.0613 38.6725 26.071 39.6946V40.8665ZM25.1677 39.6311C25.1677 38.8662 25.0603 38.3095 24.8455 37.9612C24.6306 37.6096 24.2904 37.4339 23.825 37.4339C23.3627 37.4339 23.0258 37.608 22.8142 37.9563C22.6026 38.3046 22.4936 38.8401 22.4871 39.5628V41.0081C22.4871 41.7763 22.5977 42.3444 22.8191 42.7122C23.0437 43.0768 23.3822 43.2591 23.8347 43.2591C24.2807 43.2591 24.6111 43.0865 24.8259 42.7415C25.044 42.3964 25.158 41.8528 25.1677 41.1106V39.6311Z" fill="#A3A3A3"/>
<path d="M6.04004 11H5.13184V4.97949L3.31055 5.64844V4.82812L5.89844 3.85645H6.04004V11ZM13.1445 7.96777C13.1445 9.02572 12.9639 9.81185 12.6025 10.3262C12.2412 10.8405 11.6764 11.0977 10.9082 11.0977C10.1497 11.0977 9.58822 10.847 9.22363 10.3457C8.85905 9.84115 8.67025 9.08919 8.65723 8.08984V6.88379C8.65723 5.83887 8.83789 5.0625 9.19922 4.55469C9.56055 4.04688 10.127 3.79297 10.8984 3.79297C11.6634 3.79297 12.2266 4.03874 12.5879 4.53027C12.9492 5.01855 13.1348 5.77376 13.1445 6.7959V7.96777ZM12.2412 6.73242C12.2412 5.96745 12.1338 5.41081 11.9189 5.0625C11.7041 4.71094 11.3639 4.53516 10.8984 4.53516C10.4362 4.53516 10.0993 4.70931 9.8877 5.05762C9.67611 5.40592 9.56706 5.94141 9.56055 6.66406V8.10938C9.56055 8.8776 9.67122 9.44564 9.89258 9.81348C10.1172 10.1781 10.4557 10.3604 10.9082 10.3604C11.3542 10.3604 11.6846 10.1878 11.8994 9.84277C12.1175 9.49772 12.2314 8.9541 12.2412 8.21191V6.73242ZM18.7598 7.96777C18.7598 9.02572 18.5791 9.81185 18.2178 10.3262C17.8564 10.8405 17.2917 11.0977 16.5234 11.0977C15.765 11.0977 15.2035 10.847 14.8389 10.3457C14.4743 9.84115 14.2855 9.08919 14.2725 8.08984V6.88379C14.2725 5.83887 14.4531 5.0625 14.8145 4.55469C15.1758 4.04688 15.7422 3.79297 16.5137 3.79297C17.2786 3.79297 17.8418 4.03874 18.2031 4.53027C18.5645 5.01855 18.75 5.77376 18.7598 6.7959V7.96777ZM17.8564 6.73242C17.8564 5.96745 17.749 5.41081 17.5342 5.0625C17.3193 4.71094 16.9792 4.53516 16.5137 4.53516C16.0514 4.53516 15.7145 4.70931 15.5029 5.05762C15.2913 5.40592 15.1823 5.94141 15.1758 6.66406V8.10938C15.1758 8.8776 15.2865 9.44564 15.5078 9.81348C15.7324 10.1781 16.071 10.3604 16.5234 10.3604C16.9694 10.3604 17.2998 10.1878 17.5146 9.84277C17.7327 9.49772 17.8467 8.9541 17.8564 8.21191V6.73242ZM24.375 7.96777C24.375 9.02572 24.1943 9.81185 23.833 10.3262C23.4717 10.8405 22.9069 11.0977 22.1387 11.0977C21.3802 11.0977 20.8187 10.847 20.4541 10.3457C20.0895 9.84115 19.9007 9.08919 19.8877 8.08984V6.88379C19.8877 5.83887 20.0684 5.0625 20.4297 4.55469C20.791 4.04688 21.3574 3.79297 22.1289 3.79297C22.8939 3.79297 23.457 4.03874 23.8184 4.53027C24.1797 5.01855 24.3652 5.77376 24.375 6.7959V7.96777ZM23.4717 6.73242C23.4717 5.96745 23.3643 5.41081 23.1494 5.0625C22.9346 4.71094 22.5944 4.53516 22.1289 4.53516C21.6667 4.53516 21.3298 4.70931 21.1182 5.05762C20.9066 5.40592 20.7975 5.94141 20.791 6.66406V8.10938C20.791 8.8776 20.9017 9.44564 21.123 9.81348C21.3477 10.1781 21.6862 10.3604 22.1387 10.3604C22.5846 10.3604 22.915 10.1878 23.1299 9.84277C23.348 9.49772 23.4619 8.9541 23.4717 8.21191V6.73242Z" fill="#A3A3A3"/>
<path d="M96.8492 114.32V114.856H96.733C96.2408 114.865 95.8488 115.011 95.5572 115.294C95.2655 115.576 95.0969 115.974 95.0513 116.487C95.3134 116.186 95.6711 116.035 96.1246 116.035C96.5575 116.035 96.9027 116.188 97.1602 116.493C97.42 116.799 97.5499 117.193 97.5499 117.676C97.5499 118.189 97.4097 118.599 97.1294 118.906C96.8514 119.214 96.4777 119.368 96.0083 119.368C95.5321 119.368 95.1459 119.186 94.8497 118.821C94.5534 118.454 94.4053 117.982 94.4053 117.406V117.163C94.4053 116.247 94.6001 115.548 94.9898 115.065C95.3817 114.579 95.9639 114.331 96.7364 114.32H96.8492ZM96.0186 116.562C95.8021 116.562 95.6027 116.627 95.4205 116.757C95.2382 116.886 95.1117 117.049 95.0411 117.245V117.478C95.0411 117.888 95.1333 118.218 95.3179 118.469C95.5025 118.72 95.7326 118.845 96.0083 118.845C96.2932 118.845 96.5165 118.74 96.6783 118.531C96.8423 118.321 96.9244 118.046 96.9244 117.707C96.9244 117.365 96.8412 117.089 96.6749 116.88C96.5108 116.668 96.292 116.562 96.0186 116.562ZM102.383 119.3C102.346 119.227 102.317 119.097 102.294 118.91C102 119.215 101.649 119.368 101.241 119.368C100.877 119.368 100.577 119.265 100.342 119.06C100.11 118.853 99.9937 118.591 99.9937 118.274C99.9937 117.889 100.14 117.591 100.431 117.379C100.725 117.164 101.138 117.057 101.669 117.057H102.284V116.767C102.284 116.546 102.218 116.37 102.085 116.24C101.953 116.108 101.759 116.042 101.501 116.042C101.275 116.042 101.086 116.099 100.934 116.213C100.781 116.327 100.705 116.465 100.705 116.627H100.069C100.069 116.442 100.134 116.264 100.264 116.093C100.396 115.92 100.574 115.784 100.797 115.683C101.023 115.583 101.27 115.533 101.539 115.533C101.965 115.533 102.299 115.64 102.54 115.854C102.782 116.066 102.907 116.359 102.916 116.733V118.435C102.916 118.774 102.959 119.044 103.046 119.245V119.3H102.383ZM101.334 118.818C101.532 118.818 101.72 118.766 101.898 118.664C102.075 118.561 102.204 118.428 102.284 118.264V117.505H101.788C101.013 117.505 100.626 117.732 100.626 118.185C100.626 118.384 100.692 118.538 100.824 118.65C100.956 118.762 101.126 118.818 101.334 118.818ZM104.502 115.601L104.519 116.011C104.79 115.692 105.156 115.533 105.616 115.533C106.134 115.533 106.486 115.731 106.672 116.128C106.795 115.95 106.955 115.806 107.151 115.697C107.349 115.588 107.583 115.533 107.852 115.533C108.663 115.533 109.075 115.962 109.089 116.822V119.3H108.457V116.859C108.457 116.595 108.396 116.398 108.275 116.268C108.155 116.136 107.952 116.07 107.667 116.07C107.432 116.07 107.238 116.14 107.083 116.281C106.928 116.42 106.838 116.608 106.813 116.845V119.3H106.177V116.876C106.177 116.338 105.914 116.07 105.387 116.07C104.973 116.07 104.689 116.246 104.536 116.599V119.3H103.904V115.601H104.502Z" fill="black"/>
<line x1="102.668" y1="106.739" x2="102.668" y2="112.264" stroke="#C2C2C2" stroke-width="5"/>
<path d="M157.156 120.103H156.52V115.888L155.245 116.357V115.782L157.057 115.102H157.156V120.103ZM162.269 120.103H159.009V119.648L160.731 117.734C160.986 117.445 161.162 117.21 161.258 117.03C161.356 116.848 161.405 116.66 161.405 116.466C161.405 116.206 161.326 115.993 161.169 115.827C161.012 115.661 160.802 115.577 160.54 115.577C160.225 115.577 159.98 115.667 159.805 115.847C159.632 116.025 159.545 116.273 159.545 116.593H158.913C158.913 116.134 159.06 115.764 159.354 115.482C159.65 115.199 160.045 115.058 160.54 115.058C161.002 115.058 161.368 115.18 161.637 115.424C161.906 115.665 162.04 115.988 162.04 116.391C162.04 116.881 161.728 117.464 161.104 118.141L159.771 119.587H162.269V120.103ZM167.865 118.295C167.865 118.857 167.736 119.311 167.478 119.655C167.221 119.999 166.872 120.171 166.432 120.171C165.984 120.171 165.63 120.029 165.373 119.744V121.525H164.741V116.405H165.318L165.349 116.815C165.606 116.496 165.964 116.336 166.422 116.336C166.867 116.336 167.217 116.504 167.475 116.839C167.735 117.174 167.865 117.64 167.865 118.237V118.295ZM167.232 118.223C167.232 117.806 167.143 117.477 166.966 117.235C166.788 116.994 166.544 116.873 166.234 116.873C165.851 116.873 165.564 117.043 165.373 117.382V119.149C165.562 119.486 165.851 119.655 166.241 119.655C166.544 119.655 166.785 119.535 166.962 119.296C167.142 119.055 167.232 118.697 167.232 118.223ZM169.266 116.405L169.283 116.815C169.554 116.496 169.92 116.336 170.38 116.336C170.897 116.336 171.25 116.534 171.436 116.931C171.559 116.753 171.719 116.61 171.915 116.5C172.113 116.391 172.347 116.336 172.616 116.336C173.427 116.336 173.839 116.766 173.853 117.625V120.103H173.221V117.662C173.221 117.398 173.16 117.201 173.039 117.071C172.919 116.939 172.716 116.873 172.431 116.873C172.196 116.873 172.001 116.943 171.847 117.085C171.692 117.224 171.602 117.412 171.576 117.649V120.103H170.941V117.679C170.941 117.142 170.678 116.873 170.151 116.873C169.736 116.873 169.453 117.049 169.3 117.403V120.103H168.668V116.405H169.266Z" fill="black"/>
<path d="M217.88 114.32V114.856H217.764C217.272 114.865 216.88 115.011 216.588 115.294C216.296 115.576 216.128 115.974 216.082 116.487C216.344 116.186 216.702 116.035 217.155 116.035C217.588 116.035 217.933 116.188 218.191 116.493C218.451 116.799 218.581 117.193 218.581 117.676C218.581 118.189 218.44 118.599 218.16 118.906C217.882 119.214 217.508 119.368 217.039 119.368C216.563 119.368 216.177 119.186 215.88 118.821C215.584 118.454 215.436 117.982 215.436 117.406V117.163C215.436 116.247 215.631 115.548 216.021 115.065C216.412 114.579 216.995 114.331 217.767 114.32H217.88ZM217.049 116.562C216.833 116.562 216.633 116.627 216.451 116.757C216.269 116.886 216.142 117.049 216.072 117.245V117.478C216.072 117.888 216.164 118.218 216.349 118.469C216.533 118.72 216.763 118.845 217.039 118.845C217.324 118.845 217.547 118.74 217.709 118.531C217.873 118.321 217.955 118.046 217.955 117.707C217.955 117.365 217.872 117.089 217.706 116.88C217.542 116.668 217.323 116.562 217.049 116.562ZM224.254 117.491C224.254 118.054 224.126 118.508 223.868 118.852C223.611 119.196 223.262 119.368 222.822 119.368C222.373 119.368 222.02 119.225 221.763 118.941V120.721H221.13V115.601H221.708L221.739 116.011C221.996 115.692 222.354 115.533 222.812 115.533C223.256 115.533 223.607 115.7 223.865 116.035C224.125 116.37 224.254 116.836 224.254 117.433V117.491ZM223.622 117.42C223.622 117.003 223.533 116.673 223.355 116.432C223.178 116.19 222.934 116.07 222.624 116.07C222.241 116.07 221.954 116.239 221.763 116.579V118.346C221.952 118.683 222.241 118.852 222.631 118.852C222.934 118.852 223.174 118.732 223.352 118.493C223.532 118.251 223.622 117.894 223.622 117.42ZM225.656 115.601L225.673 116.011C225.944 115.692 226.31 115.533 226.77 115.533C227.287 115.533 227.639 115.731 227.826 116.128C227.949 115.95 228.109 115.806 228.305 115.697C228.503 115.588 228.737 115.533 229.005 115.533C229.817 115.533 230.229 115.962 230.243 116.822V119.3H229.61V116.859C229.61 116.595 229.55 116.398 229.429 116.268C229.308 116.136 229.106 116.07 228.821 116.07C228.586 116.07 228.391 116.14 228.236 116.281C228.081 116.42 227.991 116.608 227.966 116.845V119.3H227.331V116.876C227.331 116.338 227.067 116.07 226.541 116.07C226.126 116.07 225.843 116.246 225.69 116.599V119.3H225.058V115.601H225.656Z" fill="black"/>
<path d="M65.3994 116.504H65.8745C66.173 116.499 66.4077 116.42 66.5786 116.268C66.7495 116.115 66.8349 115.909 66.8349 115.649C66.8349 115.066 66.5444 114.774 65.9633 114.774C65.6899 114.774 65.4712 114.853 65.3071 115.01C65.1453 115.165 65.0644 115.371 65.0644 115.629H64.4321C64.4321 115.234 64.5757 114.907 64.8628 114.648C65.1522 114.386 65.519 114.255 65.9633 114.255C66.4327 114.255 66.8008 114.379 67.0674 114.627C67.334 114.876 67.4673 115.221 67.4673 115.663C67.4673 115.879 67.3966 116.089 67.2553 116.292C67.1163 116.495 66.9261 116.646 66.6845 116.746C66.958 116.833 67.1688 116.976 67.3169 117.177C67.4673 117.378 67.5424 117.622 67.5424 117.912C67.5424 118.358 67.3966 118.713 67.1049 118.975C66.8133 119.237 66.4339 119.368 65.9668 119.368C65.4996 119.368 65.1191 119.241 64.8252 118.989C64.5335 118.736 64.3877 118.402 64.3877 117.987H65.0234C65.0234 118.249 65.1089 118.459 65.2798 118.616C65.4507 118.773 65.6797 118.852 65.9668 118.852C66.2721 118.852 66.5057 118.772 66.6674 118.613C66.8292 118.453 66.9101 118.224 66.9101 117.926C66.9101 117.636 66.8213 117.414 66.6435 117.259C66.4658 117.104 66.2094 117.024 65.8745 117.02H65.3994V116.504ZM72.4951 119.3C72.4586 119.227 72.429 119.097 72.4062 118.91C72.1123 119.215 71.7614 119.368 71.3535 119.368C70.9889 119.368 70.6893 119.265 70.4546 119.06C70.2221 118.853 70.1059 118.591 70.1059 118.274C70.1059 117.889 70.2518 117.591 70.5434 117.379C70.8374 117.164 71.2498 117.057 71.7807 117.057H72.396V116.767C72.396 116.546 72.3299 116.37 72.1977 116.24C72.0656 116.108 71.8707 116.042 71.6133 116.042C71.3877 116.042 71.1985 116.099 71.0459 116.213C70.8932 116.327 70.8169 116.465 70.8169 116.627H70.1811C70.1811 116.442 70.2461 116.264 70.3759 116.093C70.5081 115.92 70.6858 115.784 70.9091 115.683C71.1347 115.583 71.382 115.533 71.6508 115.533C72.077 115.533 72.4108 115.64 72.6523 115.854C72.8938 116.066 73.0192 116.359 73.0283 116.733V118.435C73.0283 118.774 73.0716 119.044 73.1582 119.245V119.3H72.4951ZM71.4458 118.818C71.644 118.818 71.832 118.766 72.0097 118.664C72.1875 118.561 72.3162 118.428 72.396 118.264V117.505H71.9004C71.1256 117.505 70.7383 117.732 70.7383 118.185C70.7383 118.384 70.8043 118.538 70.9365 118.65C71.0687 118.762 71.2384 118.818 71.4458 118.818ZM74.6142 115.601L74.6313 116.011C74.9025 115.692 75.2682 115.533 75.7285 115.533C76.2457 115.533 76.5978 115.731 76.7846 116.128C76.9077 115.95 77.0672 115.806 77.2632 115.697C77.4614 115.588 77.695 115.533 77.9638 115.533C78.775 115.533 79.1875 115.962 79.2011 116.822V119.3H78.5688V116.859C78.5688 116.595 78.5084 116.398 78.3877 116.268C78.2669 116.136 78.0641 116.07 77.7793 116.07C77.5446 116.07 77.3497 116.14 77.1948 116.281C77.0398 116.42 76.9498 116.608 76.9248 116.845V119.3H76.289V116.876C76.289 116.338 76.0258 116.07 75.4995 116.07C75.0848 116.07 74.8011 116.246 74.6484 116.599V119.3H74.0161V115.601H74.6142Z" fill="black"/>
<line x1="72.7807" y1="106.739" x2="72.7807" y2="112.264" stroke="#C2C2C2" stroke-width="5"/>
<line x1="223.699" y1="106.739" x2="223.699" y2="112.264" stroke="#C2C2C2" stroke-width="5"/>
<line x1="163.628" y1="107.43" x2="163.628" y2="112.954" stroke="#C2C2C2" stroke-width="5"/>
<path d="M248.527 116.784C248.395 116.942 248.237 117.068 248.052 117.164C247.87 117.26 247.669 117.307 247.45 117.307C247.163 117.307 246.913 117.237 246.698 117.096C246.487 116.954 246.322 116.756 246.206 116.501C246.09 116.243 246.032 115.96 246.032 115.65C246.032 115.317 246.095 115.017 246.22 114.751C246.348 114.484 246.528 114.28 246.76 114.139C246.992 113.998 247.264 113.927 247.573 113.927C248.066 113.927 248.453 114.112 248.736 114.481C249.02 114.848 249.163 115.349 249.163 115.985V116.169C249.163 117.138 248.971 117.845 248.589 118.292C248.206 118.736 247.628 118.964 246.856 118.975H246.733V118.442H246.866C247.388 118.433 247.789 118.298 248.069 118.035C248.349 117.771 248.502 117.354 248.527 116.784ZM247.553 116.784C247.765 116.784 247.96 116.72 248.137 116.59C248.317 116.46 248.448 116.299 248.531 116.108V115.855C248.531 115.44 248.44 115.103 248.26 114.843C248.08 114.583 247.853 114.453 247.577 114.453C247.299 114.453 247.076 114.561 246.907 114.775C246.738 114.987 246.654 115.267 246.654 115.616C246.654 115.955 246.735 116.235 246.897 116.456C247.061 116.675 247.28 116.784 247.553 116.784ZM254.96 117.164C254.96 117.727 254.831 118.18 254.573 118.524C254.316 118.868 253.967 119.04 253.528 119.04C253.079 119.04 252.725 118.898 252.468 118.613V120.394H251.836V115.274H252.413L252.444 115.684C252.702 115.365 253.059 115.205 253.517 115.205C253.962 115.205 254.313 115.373 254.57 115.708C254.83 116.043 254.96 116.509 254.96 117.106V117.164ZM254.327 117.092C254.327 116.675 254.239 116.346 254.061 116.104C253.883 115.863 253.639 115.742 253.329 115.742C252.947 115.742 252.659 115.912 252.468 116.251V118.018C252.657 118.356 252.947 118.524 253.336 118.524C253.639 118.524 253.88 118.405 254.057 118.165C254.237 117.924 254.327 117.566 254.327 117.092ZM256.361 115.274L256.378 115.684C256.649 115.365 257.015 115.205 257.475 115.205C257.993 115.205 258.345 115.404 258.531 115.8C258.655 115.622 258.814 115.479 259.01 115.369C259.208 115.26 259.442 115.205 259.711 115.205C260.522 115.205 260.934 115.635 260.948 116.494V118.972H260.316V116.532C260.316 116.267 260.255 116.07 260.135 115.94C260.014 115.808 259.811 115.742 259.526 115.742C259.291 115.742 259.097 115.813 258.942 115.954C258.787 116.093 258.697 116.281 258.672 116.518V118.972H258.036V116.549C258.036 116.011 257.773 115.742 257.246 115.742C256.832 115.742 256.548 115.919 256.395 116.272V118.972H255.763V115.274H256.361Z" fill="black"/>
<path d="M185.962 117.307H186.438C186.736 117.302 186.971 117.224 187.142 117.071C187.312 116.918 187.398 116.712 187.398 116.452C187.398 115.869 187.107 115.577 186.526 115.577C186.253 115.577 186.034 115.656 185.87 115.813C185.708 115.968 185.627 116.174 185.627 116.432H184.995C184.995 116.038 185.139 115.711 185.426 115.451C185.715 115.189 186.082 115.058 186.526 115.058C186.996 115.058 187.364 115.182 187.63 115.43C187.897 115.679 188.03 116.024 188.03 116.466C188.03 116.683 187.96 116.892 187.818 117.095C187.679 117.298 187.489 117.449 187.248 117.55C187.521 117.636 187.732 117.78 187.88 117.98C188.03 118.181 188.105 118.426 188.105 118.715C188.105 119.162 187.96 119.516 187.668 119.778C187.376 120.04 186.997 120.171 186.53 120.171C186.063 120.171 185.682 120.045 185.388 119.792C185.097 119.539 184.951 119.205 184.951 118.79H185.586C185.586 119.052 185.672 119.262 185.843 119.419C186.014 119.576 186.243 119.655 186.53 119.655C186.835 119.655 187.069 119.575 187.23 119.416C187.392 119.256 187.473 119.027 187.473 118.729C187.473 118.439 187.384 118.217 187.207 118.062C187.029 117.907 186.772 117.828 186.438 117.823H185.962V117.307ZM193.899 118.295C193.899 118.857 193.77 119.311 193.513 119.655C193.255 119.999 192.907 120.171 192.467 120.171C192.018 120.171 191.665 120.029 191.407 119.744V121.525H190.775V116.405H191.353L191.383 116.815C191.641 116.496 191.999 116.336 192.457 116.336C192.901 116.336 193.252 116.504 193.509 116.839C193.769 117.174 193.899 117.64 193.899 118.237V118.295ZM193.267 118.223C193.267 117.806 193.178 117.477 193 117.235C192.822 116.994 192.578 116.873 192.269 116.873C191.886 116.873 191.599 117.043 191.407 117.382V119.149C191.596 119.486 191.886 119.655 192.275 119.655C192.578 119.655 192.819 119.535 192.997 119.296C193.177 119.055 193.267 118.697 193.267 118.223ZM195.3 116.405L195.317 116.815C195.589 116.496 195.954 116.336 196.415 116.336C196.932 116.336 197.284 116.534 197.471 116.931C197.594 116.753 197.753 116.61 197.949 116.5C198.147 116.391 198.381 116.336 198.65 116.336C199.461 116.336 199.874 116.766 199.887 117.625V120.103H199.255V117.662C199.255 117.398 199.194 117.201 199.074 117.071C198.953 116.939 198.75 116.873 198.465 116.873C198.231 116.873 198.036 116.943 197.881 117.085C197.726 117.224 197.636 117.412 197.611 117.649V120.103H196.975V117.679C196.975 117.142 196.712 116.873 196.186 116.873C195.771 116.873 195.487 117.049 195.334 117.403V120.103H194.702V116.405H195.3Z" fill="black"/>
<path d="M126.406 117.35C126.273 117.507 126.115 117.634 125.93 117.729C125.748 117.825 125.548 117.873 125.329 117.873C125.042 117.873 124.791 117.802 124.577 117.661C124.365 117.52 124.201 117.321 124.085 117.066C123.969 116.809 123.91 116.525 123.91 116.215C123.91 115.882 123.973 115.583 124.098 115.316C124.226 115.05 124.406 114.846 124.638 114.704C124.871 114.563 125.142 114.492 125.452 114.492C125.944 114.492 126.331 114.677 126.614 115.046C126.899 115.413 127.041 115.914 127.041 116.55V116.735C127.041 117.703 126.85 118.411 126.467 118.857C126.084 119.302 125.507 119.529 124.734 119.541H124.611V119.008H124.744C125.266 118.998 125.667 118.863 125.948 118.601C126.228 118.337 126.38 117.92 126.406 117.35ZM125.431 117.35C125.643 117.35 125.838 117.285 126.016 117.155C126.196 117.025 126.327 116.865 126.409 116.673V116.42C126.409 116.005 126.319 115.668 126.139 115.408C125.959 115.149 125.731 115.019 125.455 115.019C125.177 115.019 124.954 115.126 124.785 115.34C124.617 115.552 124.533 115.832 124.533 116.181C124.533 116.52 124.613 116.801 124.775 117.022C124.939 117.241 125.158 117.35 125.431 117.35ZM131.997 119.537C131.961 119.464 131.931 119.335 131.908 119.148C131.615 119.453 131.264 119.606 130.856 119.606C130.491 119.606 130.192 119.503 129.957 119.298C129.724 119.091 129.608 118.829 129.608 118.512C129.608 118.127 129.754 117.828 130.046 117.616C130.34 117.402 130.752 117.295 131.283 117.295H131.898V117.005C131.898 116.784 131.832 116.608 131.7 116.478C131.568 116.346 131.373 116.28 131.116 116.28C130.89 116.28 130.701 116.337 130.548 116.451C130.395 116.565 130.319 116.703 130.319 116.865H129.683C129.683 116.68 129.748 116.502 129.878 116.331C130.01 116.158 130.188 116.021 130.411 115.921C130.637 115.821 130.884 115.771 131.153 115.771C131.579 115.771 131.913 115.878 132.155 116.092C132.396 116.304 132.521 116.597 132.531 116.97V118.673C132.531 119.012 132.574 119.282 132.66 119.483V119.537H131.997ZM130.948 119.055C131.146 119.055 131.334 119.004 131.512 118.902C131.69 118.799 131.818 118.666 131.898 118.502V117.743H131.403C130.628 117.743 130.241 117.97 130.241 118.423C130.241 118.621 130.307 118.776 130.439 118.888C130.571 119 130.741 119.055 130.948 119.055ZM134.116 115.839L134.134 116.249C134.405 115.93 134.77 115.771 135.231 115.771C135.748 115.771 136.1 115.969 136.287 116.366C136.41 116.188 136.569 116.044 136.765 115.935C136.964 115.825 137.197 115.771 137.466 115.771C138.277 115.771 138.69 116.2 138.703 117.059V119.537H138.071V117.097C138.071 116.833 138.011 116.636 137.89 116.506C137.769 116.373 137.566 116.307 137.282 116.307C137.047 116.307 136.852 116.378 136.697 116.519C136.542 116.658 136.452 116.846 136.427 117.083V119.537H135.791V117.114C135.791 116.576 135.528 116.307 135.002 116.307C134.587 116.307 134.303 116.484 134.151 116.837V119.537H133.518V115.839H134.116Z" fill="black"/>
<line x1="132.288" y1="106.753" x2="132.288" y2="112.407" stroke="#C2C2C2" stroke-width="5"/>
<line x1="193.349" y1="107.318" x2="193.349" y2="112.972" stroke="#C2C2C2" stroke-width="5"/>
<line x1="252.713" y1="107.318" x2="252.713" y2="112.972" stroke="#C2C2C2" stroke-width="5"/>
<line x1="186.5" y1="0.5" x2="186.5" y2="105.5" stroke="#85D2FF" stroke-linecap="round" stroke-dasharray="2 2"/>
</svg>
